<svg fill="none" height="270" viewBox="0 0 480 270" width="480" xmlns="http://www.w3.org/2000/svg"><path d="m0 0h480v270h-480z" fill="#e5e5e5"/><path d="m-76-82h3228v380h-3228z" fill="#fff" stroke-width="2"/><path d="m0 0h480v270h-480z" fill="#767676" stroke-width="2"/><path d="m208 96h54v76h-54z" fill="#767676" stroke="#5b5b5b" stroke-linecap="square" stroke-width="4"/><path d="m272 114h8v50h-8z" fill="#767676" stroke="#5b5b5b" stroke-linecap="square" stroke-width="4"/><g transform="matrix(2 0 0 2 272 96)"><path d="m2 2 2 5v2h-4v-2z" fill="#767676"/><path d="m2 0v2m0 0-2 5v2h4v-2z" stroke="#5b5b5b" stroke-linecap="square" stroke-width="2"/></g><g stroke="#5b5b5b"><path d="m0 0h4v2c0 .55228-.44772 1-1 1h-2c-.552285 0-1-.44772-1-1z" fill="#767676" stroke-linecap="square" stroke-width="2" transform="matrix(2 0 0 2 272 164)"/><path d="m202 106h12" stroke-width="4"/><path d="m202 114h12" stroke-width="4"/><path d="m202 122h12" stroke-width="4"/><path d="m202 130h12" stroke-width="4"/><path d="m202 138h12" stroke-width="4"/><path d="m202 146h12" stroke-width="4"/><path d="m202 154h12" stroke-width="4"/><path d="m202 162h12" stroke-width="4"/></g></svg>