<svg fill="none" height="270" viewBox="0 0 480 270" width="480" xmlns="http://www.w3.org/2000/svg"><path d="m0 0h480v270h-480z" fill="#e5e5e5"/><path d="m-2676-82h3228v380h-3228z" fill="#fff" stroke-width="2"/><g fill="#767676"><path d="m0 0h480v270h-480z" stroke-width="2"/><path d="m200 110h80v60h-80z" stroke="#5b5b5b" stroke-linecap="square" stroke-width="4"/><path d="m200 104h80v60h-80z" stroke="#5b5b5b" stroke-linecap="square" stroke-width="4"/><path d="m210 96h6v16h-6z" stroke="#5b5b5b" stroke-linecap="square" stroke-width="4"/><path d="m264 96h6v16h-6z" stroke="#5b5b5b" stroke-linecap="square" stroke-width="4"/></g><g transform="matrix(2 0 0 2 210 122)"><g fill="#767676"><path d="m24 0h6v10h-6z"/><path d="m6 0h24v5h-24z"/><path d="m0 5h30v5h-30z"/><path d="m0 10h24v5h-24z"/><path d="m0 5h6v10h-6z"/><path d="m6 0h6v15h-6z"/><path d="m12 0h6v15h-6z"/><path d="m18 0h6v15h-6z"/></g><path d="m24 0h6m-6 0v10m0-10h-6m6 0v15m6-15v10m0-10h-24m24 0v5m0 5h-6m6 0v-5m0 5h-30m24 0h-24m24 0v5m-18-15v5m0-5h6m-6 0v15m24-10h-24m24 0h-30m6 0h-6m6 0v10m-6-10v5m0-5v10m0-5v5m24 0h-24m24 0h-6m-18 0h6m0 0h6m0-15v15m0-15h6m-6 15h6m0-15v15" stroke="#5b5b5b" stroke-linecap="square" stroke-width="2"/></g></svg>