<svg fill="none" height="270" viewBox="0 0 480 270" width="480" xmlns="http://www.w3.org/2000/svg"><path d="m0 0h480v270h-480z" fill="#e5e5e5"/><path d="m-1636-82h3228v380h-3228z" fill="#fff" stroke-width="2"/><path d="m0 0h480v270h-480z" fill="#767676" stroke-width="2"/><g stroke="#5b5b5b" stroke-linecap="square"><path d="m14 0h-14v30h11c1.6569 0 3-1.3431 3-3z" fill="#767676" stroke-width="2" transform="matrix(-2 0 0 2 230 106)"/><path d="m3.5 0h32v30c0 1.6569-1.3431 3-3 3h-32.5.5c1.65685 0 3-1.3431 3-3z" fill="#767676" stroke-width="2" transform="matrix(2 0 0 2 207 100)"/><path d="m224 110h44v8h-44z" fill="#767676" stroke-width="4"/><path d="m224 126h8v18h-8z" fill="#767676" stroke-width="4"/><path d="m240 126h28v8h-28z" fill="#767676" stroke-width="4"/><path d="m240 142h28" stroke-width="4"/><path d="m240 150h28" stroke-width="4"/></g></svg>