<svg fill="none" height="270" viewBox="0 0 480 270" width="480" xmlns="http://www.w3.org/2000/svg"><path d="m0 0h480v270h-480z" fill="#e5e5e5"/><path d="m-2156-82h3228v380h-3228z" fill="#fff" stroke-width="2"/><g fill="#767676"><path d="m0 0h480v270h-480z" stroke-width="2"/><path d="m256 96h10v15h-10z" stroke="#5b5b5b" stroke-linecap="square" stroke-width="4"/><path clip-rule="evenodd" d="m42 0h-42v31h18.6666l.3334 1h4l.3334-1h18.6666z" fill-rule="evenodd" stroke="#5b5b5b" stroke-linecap="square" stroke-width="2" transform="matrix(2 0 0 2 198 108)"/><path d="m0 0h36v25h-36z" stroke="#5b5b5b" stroke-linecap="square" stroke-width="2" transform="matrix(2 0 0 2 204 114)"/><path d="m0 0h13c2.7614 0 5 2.23858 5 5v25.5c0-2.4853-2.0147-4.5-4.5-4.5h-13.5z" stroke="#5b5b5b" stroke-linecap="square" stroke-width="2" transform="matrix(2 0 0 2 204 102)"/><path d="m0 0h13c2.7614 0 5 2.23858 5 5v25.5c0-2.4853-2.0147-4.5-4.5-4.5h-13.5z" stroke="#5b5b5b" stroke-linecap="square" stroke-width="2" transform="matrix(-2 0 0 2 276 102)"/></g></svg>