<?xml version="1.0" encoding="UTF-8"?>
<svg width="40px" height="40px" viewBox="0 0 40 40" version="1.1" xmlns="http://www.w3.org/2000/svg" xmlns:xlink="http://www.w3.org/1999/xlink">
    <!-- Generator: Sketch 46 (44423) - http://www.bohemiancoding.com/sketch -->
    <title>Fill 380</title>
    <desc>Created with Sketch.</desc>
    <defs></defs>
    <g id="Page-1" stroke="none" stroke-width="1" fill="none" fill-rule="evenodd">
        <path d="M40,27.0946905 L40,12.9060193 C40,5.80706985 34.1922203,0 27.0946905,0 L12.9060193,0 C5.80636002,0 0,5.80706985 0,12.9060193 L0,27.0946905 C0,34.1929302 5.80636002,40 12.9060193,40 L27.0946905,40 C34.1922203,40 40,34.1929302 40,27.0946905 L40,27.0946905 Z M11.8604486,9.7749858 C12.346678,9.83745031 12.6632595,10.3485236 12.5844691,10.8851505 C12.4503123,10.7112436 12.3140261,10.633163 12.1010789,10.6040602 C11.8483816,10.5671493 11.6361442,10.7531232 11.3813174,10.7446053 C10.9504543,10.7282794 10.5501136,10.3208404 10.6182567,10.1100227 C10.7076945,9.83390119 11.3074957,9.70400341 11.8604486,9.7749858 L11.8604486,9.7749858 Z M12.0670074,12.1890971 C12.4126917,12.1386996 12.5802101,12.4389551 12.9287337,12.4361158 C13.1054798,12.4346962 13.2084043,12.4190801 13.3759228,12.3665531 C13.3283646,12.7896082 13.0628904,13.0891539 12.6526122,13.1771721 C12.3402896,13.2438955 12.1834185,13.193498 11.8938103,13.0529529 C11.6751846,12.9471891 11.5225724,12.7775412 11.3422771,12.6121522 C11.5438671,12.350937 11.7447473,12.2345258 12.0670074,12.1890971 L12.0670074,12.1890971 Z M13.3851505,5.70698467 C13.140971,6.00936968 13.0231403,6.20031232 12.6980409,6.20031232 C12.3864282,6.20031232 11.8015332,6.02427598 11.8341851,5.84823964 C11.9023282,5.50539466 12.2842135,5.47842135 12.6270585,5.45996593 C12.9379614,5.4443498 13.4930437,5.57353776 13.3851505,5.70698467 L13.3851505,5.70698467 Z M16.374929,5.56218058 C16.1484952,5.72544009 15.9618115,5.77228847 15.6871096,5.73892675 C15.3293583,5.69491766 15.1263487,5.51391255 14.9290176,5.21010789 C14.6954855,4.85306644 14.6543157,4.52370812 14.7906019,4.11555934 C15.1994605,4.05451448 15.5146224,4.16240772 15.7318285,4.52441794 C15.8546281,4.73097672 15.8333333,5.0028393 15.9589722,5.20584895 C16.0867405,5.4116979 16.1484952,5.48409994 16.374929,5.56218058 L16.374929,5.56218058 Z M17.6703578,3.27654742 C17.4992902,3.76845542 17.4013345,3.71521863 17.1195344,3.76845542 C16.9875071,3.5455707 16.9655026,3.34540034 17.0506814,3.09909143 C17.1436684,2.83219761 17.3026689,2.68029529 17.5695627,2.60576377 C17.7207553,2.81800114 17.7590857,3.02597956 17.6703578,3.27654742 L17.6703578,3.27654742 Z M18.4107041,7.00667235 C18.5753833,6.8838728 18.7421919,6.81076093 18.9260363,6.90303805 C18.9814026,6.92930153 18.9026122,7.17490062 18.8231119,7.32396366 C18.6825667,7.59511641 18.4973027,7.72998296 18.2034355,7.78321976 C18.0799262,7.49574106 18.1622658,7.1919364 18.4107041,7.00667235 L18.4107041,7.00667235 Z M21.0299546,4.92830778 C20.9674901,5.34568427 20.3733674,5.03123225 20.0099375,4.85803521 C19.5599091,4.64437819 19.3157297,4.34199319 19.1865417,3.83517888 C19.5790744,3.63287905 19.9126917,3.63287905 20.3052243,3.83517888 C20.746025,4.06161272 21.0760931,4.61172629 21.0299546,4.92830778 L21.0299546,4.92830778 Z M22.6838444,7.36016468 C22.5759512,7.80877342 22.3835889,8.07495741 21.9953152,8.31203861 C21.6751846,8.5072402 21.3153038,8.70031232 21.0590574,8.4270301 C20.7978421,8.14735945 21.1889551,7.67319705 21.6034923,7.44108461 C21.9257524,7.26078932 22.326803,7.28492334 22.6838444,7.36016468 L22.6838444,7.36016468 Z M22.6511925,6.9371096 C22.3786201,6.94349801 22.439665,6.48921068 22.5454287,6.23083475 C22.6384157,6.01859739 22.7732822,5.89934696 22.9954571,5.84469052 C23.1232254,6.10093697 23.1232254,6.32879046 22.9954571,6.58503691 C22.9088586,6.75752413 22.8407155,6.93356048 22.6511925,6.9371096 L22.6511925,6.9371096 Z M23.5817717,2.98906871 C23.5867405,3.2907439 23.495883,3.49943214 23.2722885,3.69392391 C22.9926178,3.93881317 22.5078081,4.16950596 22.3402896,3.83517888 C22.1883873,3.53350369 22.5063884,3.27441794 22.7874787,3.09554231 C23.0536627,2.92589438 23.2836457,2.8967916 23.5817717,2.98906871 L23.5817717,2.98906871 Z M23.649205,4.85803521 C23.5555082,5.12492902 23.3745031,5.27612152 23.0990914,5.31587166 C22.8918228,5.34568427 22.7874787,5.14764338 22.5823396,5.17532652 C22.4197899,5.19662124 22.3232538,5.24063032 22.2025838,5.35065304 C22.2075525,4.92262919 22.5092277,4.58404316 22.9258944,4.54003407 C23.2311187,4.50738217 23.4625213,4.60817717 23.649205,4.85803521 L23.649205,4.85803521 Z M26.3053663,4.61101647 C26.233674,5.11783078 25.9965928,5.44576945 25.5458546,5.66865417 C25.1597104,5.858887 24.4733106,6.14068711 24.4442078,5.70414537 C24.4328507,5.53804656 24.7430437,5.05465645 25.0979557,4.82183419 C25.4997161,4.55919932 25.8411414,4.49957411 26.3053663,4.61101647 L26.3053663,4.61101647 Z M26.6141397,7.36016468 C26.5076661,7.75553663 26.2201874,8.03591709 25.830494,7.98409994 C25.5494037,7.94647927 25.4173765,7.75553663 25.1341567,7.78321976 C24.9105622,7.80735378 24.774276,7.87194776 24.6152754,8.0302385 C24.620954,7.55252697 24.8459682,7.20471323 25.2711528,7.00667235 C25.7637706,6.78165815 26.2436116,7.02157865 26.6141397,7.36016468 L26.6141397,7.36016468 Z M25.7183419,9.08716638 C25.9050256,9.31856899 25.9639409,9.52938671 25.9256104,9.82751278 C25.8844407,10.1540318 25.7935832,10.5912834 25.4791312,10.532368 C25.1994605,10.4819705 25.1618399,10.1511925 25.1668086,9.86300398 C25.1739069,9.48892675 25.3719478,9.20854628 25.7183419,9.08716638 L25.7183419,9.08716638 Z M28.4767178,10.2867689 C28.4575525,10.6707836 28.2722885,10.9454855 27.9266042,11.0973878 C27.6398353,11.2208972 27.2565304,11.3500852 27.1337308,11.0611868 C27.0123509,10.7829358 27.3317717,10.5948325 27.5802101,10.4258944 C27.8754969,10.2271437 28.1367121,10.1859739 28.4767178,10.2867689 L28.4767178,10.2867689 Z M38.8969336,26.9136854 C38.8969336,33.6201022 33.4099943,39.1077513 26.7042873,39.1077513 L13.2971323,39.1077513 C6.59142533,39.1077513 1.10377626,33.6201022 1.10377626,26.9136854 L1.10377626,20 L18.1296139,20 L18.2034355,17.3012493 C18.233958,16.415389 18.0706985,15.4053095 17.9280239,15.1149915 C17.7810903,14.8161556 16.9946053,14.3356048 16.3415673,14.1624077 C15.4109881,13.9168086 14.6621238,13.9097104 13.5817717,13.8110449 C13.0195911,13.7599375 12.6526122,13.9168086 12.1351505,13.7052811 C12.4460534,13.5647359 13.0706985,13.6172629 13.7045713,13.5455707 C14.3249574,13.4752981 14.786343,13.3659852 14.9290176,13.0011357 C14.9957411,12.8243896 14.0410278,12.2927314 13.411414,11.943498 C12.8818853,11.6482112 12.0670074,11.4849517 11.9981545,11.3067859 C12.4794151,11.3067859 12.6568711,11.4593981 13.0579216,11.5836173 L14.1340148,11.9605338 C13.9139693,11.7021579 13.7975582,11.5438671 13.6179727,11.2556786 C13.4135434,10.9277399 13.0657297,10.6729131 13.0657297,10.3563316 L14.100653,11.4494605 C14.4782794,11.9498864 14.8161556,12.1869676 15.4109881,12.3665531 C15.709824,12.4545713 15.9440659,12.4957411 16.2556786,12.5070982 C16.9385292,12.5305224 17.7789608,12.3729415 17.979841,12.1890971 C18.1161272,12.0641681 15.9099943,10.5132027 15.3471039,10.0461386 C14.5265474,9.36470755 12.7441794,9.18938103 13.0408859,9.12052811 C13.5477002,9.01476434 15.0326519,9.57481545 14.9283078,9.34696195 C14.7636286,8.99063032 14.822544,8.28151618 14.9283078,8.52569563 C15.0156161,9.4342703 15.5742476,9.81899489 16.0810619,10.0986655 C17.4886428,10.9327087 18.2531232,10.9731687 18.1665247,10.4258944 C18.0061045,9.40658717 17.74205,8.76206701 16.9967348,8.06501988 C16.1023566,7.22884725 15.1355764,7.25440091 14.0318001,7.11314594 C13.4752981,7.04287337 12.6015048,6.7979841 12.4645088,6.65601931 C12.7860591,6.6794435 13.0579216,6.67376491 13.3383021,6.70854628 C13.4994321,6.72913118 15.4869392,6.93285065 14.8438387,6.46507666 C14.3327655,6.0931289 14.1524702,5.80919932 13.8898353,5.33148779 C13.6314594,4.86158433 13.4795571,4.36541738 13.6179727,4.11555934 C13.963657,4.89281658 14.6528961,5.91425327 15.4784214,6.40900057 C16.0526689,6.75042589 16.6865417,6.74403748 16.9619534,6.53180011 C17.1777399,6.36641113 16.9363998,5.28889835 16.7610733,4.65431573 C16.6176888,4.13472459 16.338728,3.74503123 16.1435264,3.27228847 C16.487791,3.48381601 16.7156445,3.82169222 16.8654174,4.12407723 C16.9889267,4.37677456 17.193356,4.83319137 17.2962805,5.11570131 C17.4687677,5.04542873 17.4964509,4.78137422 17.5553663,4.64082907 C17.665389,4.37606474 17.6306076,4.00198751 17.7704429,4.03747871 C17.8378762,5.27044293 17.8754969,5.20088018 17.7910278,6.0931289 C17.7321124,6.67305508 17.6788756,7.00312323 17.5489779,7.5709824 C17.7839296,7.9975866 17.9308631,8.23040886 18.2034355,8.63003975 C18.5171777,9.08716638 18.8763487,9.74020443 19.0303805,9.68696763 L19.2362294,8.52427598 C19.294435,7.94860875 19.3299262,7.68810335 19.270301,7.11314594 C19.2000284,6.39764338 19.0126349,6.01859739 18.8586031,5.31587166 C18.7031516,4.61598524 18.4781374,3.69392391 18.4781374,3.51788756 C18.6165531,3.62436116 18.9963089,4.75014196 19.3079216,5.52810903 C19.4576945,5.90502555 19.6245031,6.07751278 19.858745,6.40900057 C19.9453436,6.55025554 20.0432993,6.61981829 20.2022998,6.65601931 C20.4741624,6.71422487 20.5827655,6.54883589 20.8248154,6.30394662 C21.0434412,5.97174901 21.1449461,5.76377058 21.2712947,5.38543441 C21.4224872,4.93824532 21.4189381,4.65786485 21.4785633,4.18796139 C21.5609029,3.53208404 21.5843271,3.15800681 21.5814878,2.49574106 C21.7887564,2.63699602 21.790176,3.47955707 21.8235378,4.11555934 C21.8554798,4.73665531 21.9257524,5.17532652 21.7546848,5.70414537 C21.616979,6.0931289 20.8482396,7.02583759 20.5827655,7.53620102 C20.3165815,8.04727428 20.5465645,8.60306644 20.6856899,9.12265758 C20.8248154,9.64295855 20.9980125,10.4258944 21.2414821,10.8155877 C21.4210676,10.721891 21.7227428,9.95954003 22.0677172,9.43994889 C22.3118966,9.07509938 22.4936116,8.97146508 22.7186258,8.59383873 C23.10477,7.95357751 23.2105338,7.53052243 23.4781374,6.83205565 C23.7485804,6.12791028 23.9267462,5.06885292 24.0992334,4.99787053 C24.0772288,5.46990346 24.0481261,5.73537763 23.9608177,6.1967632 C23.8649915,6.70144804 23.6165531,7.31970471 23.6165531,7.46592845 C23.6165531,7.61144236 23.9806928,7.40985236 24.0665815,7.33745031 C24.6074673,6.88316298 24.9957411,6.33801817 25.1341567,6.47998296 C24.0303805,7.64196479 23.443356,8.41780239 22.8570415,9.19293015 C22.576661,9.56345826 22.3715219,9.99361158 22.3757808,10.1810051 C22.3800398,10.3676888 22.9131175,10.1952016 23.1672345,10.0035491 C23.685406,9.61598524 24.4442078,8.77058489 24.4768597,9.05309483 L22.4098524,11.2372232 C22.3055082,11.4494605 22.1862578,11.9910562 22.1252129,12.3118966 C22.05636,12.6781658 22.0698467,12.6334469 22.05636,13.0068143 C22.2969903,13.0777967 23.5817717,12.3665531 24.6848382,11.7305508 C25.2803805,11.3877058 25.858887,10.7708688 26.3394378,10.3208404 C26.8554798,9.84099943 27.1017888,9.55139125 27.5461386,9.01689381 C27.7640545,9.09852357 27.080494,10.0958262 26.6283362,10.5139125 C26.2088302,10.9000568 25.6842703,11.5190233 25.9256104,11.766042 C26.2052811,12.0513913 26.5360591,12.0144804 26.9257524,11.943498 C27.6845542,11.802243 27.7065588,11.866837 28.6002271,11.9023282 C28.7748438,11.9726008 29.3192788,11.7738501 29.3746451,11.9058773 C29.4413685,12.0790744 29.2695911,12.0492618 28.9601079,12.1188245 C27.7193356,12.2600795 26.9853776,12.1635434 25.7545429,12.5411698 C24.7189097,12.8577513 24.2206133,12.8478137 23.5114991,13.4944634 C23.0756672,13.8919648 22.6838444,14.3753549 22.6164111,14.726008 C23.1324532,14.7977002 23.9104202,14.5421635 24.7189097,14.3391539 C25.8219761,14.064452 26.3564736,13.5711244 27.4779955,13.38728 C27.8776263,13.3219761 28.1068995,13.2999716 28.5107893,13.282226 C28.0770869,13.50795 27.8357467,13.6406871 27.4091425,13.8798978 C27.09682,14.0552243 26.9207836,14.1567291 26.6141397,14.3391539 C27.1017888,14.4520159 27.3651334,14.5733958 27.8556218,14.6564452 C28.2708688,14.726008 28.7187677,14.726008 28.6825667,14.9041738 C27.649063,14.8679727 26.5814878,14.7977002 26.0640261,14.8331914 C25.8141681,14.8488075 24.9971607,15.0844691 24.3746451,15.3967916 C23.5817717,15.7140829 22.1678024,16.3713799 22.1678024,16.5601931 C22.1678024,17.0875923 22.1479273,17.1940659 22.2153606,18.14523 L22.3147359,20 L38.8969336,20 L38.8969336,26.9136854 Z M26.7511357,16.1350085 C26.511925,15.8333333 26.3429869,15.455707 26.5814878,15.1504827 C26.6978989,15.0021295 27.3772005,15.1881034 27.6157013,15.6083191 C27.7846394,15.9085747 27.8776263,16.2059909 27.9883589,16.5318001 C27.5127768,16.6262067 27.0868825,16.5580636 26.7511357,16.1350085 L26.7511357,16.1350085 Z M23.8919648,11.5552243 C23.5327939,11.746167 23.1459398,11.9612436 22.9400909,11.6020727 C22.7292731,11.2343839 23.1601363,10.9199319 23.5327939,10.721891 C23.8919648,10.5316581 24.3483816,10.5359171 24.580494,10.7091141 C24.4584043,11.1193924 24.2632027,11.3564736 23.8919648,11.5552243 L23.8919648,11.5552243 Z M13.4809767,7.58730835 C14.3008234,7.37649063 14.6486371,7.54968768 14.6486371,7.54968768 C14.2128052,7.75340716 14.3632879,8.18781942 13.5044009,8.3766326 C13.2091141,8.44122658 12.6476434,8.42986939 12.6476434,8.42986939 C12.6476434,8.25809199 12.9145372,7.73211244 13.4809767,7.58730835 L13.4809767,7.58730835 Z M15.8191369,8.14097104 C16.0618966,8.14097104 16.6659568,8.2729983 16.7624929,8.87563884 C16.8597388,9.47827939 16.5183135,9.83603066 16.5183135,9.83603066 C16.5183135,9.83603066 15.935548,9.18867121 15.8383021,8.97785349 C15.7424759,8.76703578 15.8191369,8.14097104 15.8191369,8.14097104 L15.8191369,8.14097104 Z M15.9632311,11.2372232 C16.1754685,11.4097104 16.4139693,11.6141397 16.2478705,11.8370244 C16.0732538,12.068427 15.7254401,11.919364 15.4784214,11.766042 C15.1909426,11.5850369 15.0511073,11.3692504 14.9957411,11.0264055 C15.3527825,10.8780522 15.7254401,11.0469903 15.9632311,11.2372232 L15.9632311,11.2372232 Z M13.1125781,14.4569847 C13.5249858,14.3242476 14.1723453,14.1240772 14.2170642,14.5634583 C14.2482964,14.8842987 13.9693356,15.0333617 13.6981829,15.1973311 C13.2346678,15.4784214 12.737791,15.4408007 12.3197047,15.0915673 C12.524134,14.7473027 12.737791,14.5769449 13.1125781,14.4569847 L13.1125781,14.4569847 Z M29.3746451,28.3666951 C29.4413685,28.1942078 29.2695911,28.2240204 28.9601079,28.1544577 C27.7193356,28.0132027 26.9853776,28.109029 25.7545429,27.7314026 C24.7189097,27.4155309 24.2206133,27.4247587 23.5114991,26.778109 C23.0756672,26.3813174 22.6838444,25.8979273 22.6164111,25.5465645 C23.1324532,25.4748722 23.9104202,25.7311187 24.7189097,25.9341283 C25.8219761,26.2088302 26.3564736,26.7021579 27.4779955,26.8852924 C27.8776263,26.9513061 28.1068995,26.9733106 28.5107893,26.9903464 C28.0770869,26.7646224 27.8357467,26.6318853 27.4091425,26.3933844 C27.09682,26.2173481 26.9207836,26.1158433 26.6148495,25.9341283 C27.1017888,25.8212663 27.3651334,25.6991766 27.8556218,25.6161272 C28.2708688,25.5465645 28.7187677,25.5465645 28.6825667,25.3691085 C27.649063,25.4053095 26.5814878,25.4748722 26.0640261,25.4400909 C25.8141681,25.4237649 24.9978705,25.1881034 24.3746451,24.8764906 C23.5824815,24.5584895 22.1678024,23.9019023 22.1678024,23.7130892 C22.1678024,23.1849801 22.1479273,23.0792164 22.2153606,22.1273424 L22.322544,20.1334469 L18.1260647,20.1334469 L18.2034355,22.9720329 C18.2346678,23.8578932 18.0706985,24.8672629 17.9280239,25.1582907 C17.7810903,25.4571266 16.9953152,25.9376775 16.3415673,26.1108745 C15.4109881,26.3557638 14.6628336,26.362862 13.5817717,26.4622374 C13.0195911,26.5133447 12.6526122,26.3557638 12.1351505,26.5680011 C12.4460534,26.7085463 13.0706985,26.6553095 13.7045713,26.7270017 C14.3249574,26.7972743 14.786343,26.907297 14.9290176,27.2721465 C14.9957411,27.4481829 14.0410278,27.979841 13.4121238,28.3290744 C12.8818853,28.625071 12.0670074,28.7883305 11.9981545,28.9664963 C12.4794151,28.9664963 12.6568711,28.8138842 13.0579216,28.6889551 L14.1340148,28.3127484 C13.9139693,28.5711244 13.7975582,28.7287053 13.6179727,29.0176036 C13.4135434,29.3448325 13.0657297,29.6003691 13.0657297,29.9162408 L14.1013629,28.8231119 C14.4782794,28.322686 14.8161556,28.0863146 15.4109881,27.9060193 C15.709824,27.8180011 15.9440659,27.7768313 16.2556786,27.766184 C16.9385292,27.7427598 17.7789608,27.8996309 17.9805508,28.0834753 C18.1161272,28.2091141 15.9099943,29.7600795 15.3478137,30.2271437 C14.5265474,30.9078648 12.7441794,31.0831914 13.0408859,31.1527541 C13.5477002,31.2578081 15.0326519,30.6984668 14.9283078,30.9263203 C14.7643384,31.2826519 14.822544,31.991766 14.9283078,31.7468768 C15.0156161,30.8390119 15.5742476,30.4535775 16.0810619,30.1746167 C17.4886428,29.3405735 18.2531232,29.3001136 18.1665247,29.846678 C18.0068143,30.8659852 17.74205,31.5112152 16.9967348,32.2075525 C16.1023566,33.0437252 15.1355764,33.0181715 14.0318001,33.1594265 C13.4752981,33.2304089 12.6015048,33.4752981 12.4645088,33.6165531 C12.7860591,33.5931289 13.0579216,33.5988075 13.3383021,33.5647359 C13.4994321,33.5441511 15.4869392,33.3397217 14.8438387,33.8082056 C14.3327655,34.1794435 14.1524702,34.4640829 13.8898353,34.9417944 C13.6321692,35.4109881 13.4795571,35.907155 13.6179727,36.1577229 C13.963657,35.3797558 14.6528961,34.3583191 15.4784214,33.8642817 C16.0526689,33.5221465 16.6865417,33.5292447 16.9619534,33.7414821 C17.1777399,33.9061613 16.9363998,34.9843839 16.7610733,35.6189665 C16.6183986,36.1378478 16.338728,36.528251 16.1435264,37.0002839 C16.487791,36.7894662 16.7156445,36.4508802 16.8654174,36.149205 C16.9889267,35.8957978 17.1940659,35.4400909 17.2962805,35.1568711 C17.4687677,35.2278535 17.4964509,35.491908 17.5553663,35.6317433 C17.665389,35.8965077 17.6306076,36.2705849 17.7704429,36.2358035 C17.8378762,35.0021295 17.8762067,35.072402 17.7910278,34.1801533 C17.7321124,33.6002271 17.6788756,33.270159 17.5496877,32.70159 C17.7846394,32.2756956 17.9308631,32.0428734 18.2034355,31.6432425 C18.5178876,31.185406 18.8763487,30.532368 19.0310903,30.5863146 L19.2362294,31.7490062 C19.294435,32.3239637 19.3299262,32.5844691 19.270301,33.1594265 C19.2000284,33.874929 19.0126349,34.253975 18.8586031,34.9574106 C18.7031516,35.657297 18.4781374,36.5786485 18.4781374,36.7553947 C18.6165531,36.6489211 18.9963089,35.5224304 19.3079216,34.7451732 C19.4576945,34.3682567 19.6245031,34.1950596 19.858745,33.8642817 C19.9453436,33.7223169 20.0432993,33.6534639 20.2022998,33.6172629 C20.4741624,33.5590574 20.5827655,33.7237365 20.8248154,33.9693356 C21.0434412,34.3015332 21.1449461,34.5088018 21.2712947,34.887138 C21.4224872,35.3350369 21.4196479,35.6147076 21.4785633,36.0853208 C21.5609029,36.7411982 21.5843271,37.1152754 21.5814878,37.7775412 C21.7894662,37.6355764 21.790176,36.7930153 21.8235378,36.1577229 C21.8554798,35.5359171 21.9257524,35.0972459 21.7546848,34.568427 C21.616979,34.1801533 20.8482396,33.2474446 20.5827655,32.7363714 C20.3165815,32.2252981 20.5465645,31.6702158 20.6856899,31.1499148 C20.8248154,30.6303237 20.9980125,29.846678 21.2414821,29.4576945 C21.4210676,29.5513913 21.7227428,30.3137422 22.0677172,30.8333333 C22.3118966,31.1981829 22.4936116,31.3011073 22.7186258,31.6794435 C23.10477,32.3189949 23.2105338,32.7427598 23.4781374,33.4412266 C23.7492902,34.1446621 23.9267462,35.2044293 24.0992334,35.2747019 C24.0772288,34.8033788 24.0481261,34.5371948 23.9608177,34.076519 C23.8657013,33.5718342 23.6165531,32.9528677 23.6165531,32.8073538 C23.6165531,32.6618399 23.9806928,32.8634299 24.0665815,32.9351221 C24.6081772,33.3894094 24.9957411,33.9345542 25.1341567,33.7932993 C24.0303805,32.6306076 23.443356,31.85477 22.8570415,31.0803521 C22.576661,30.709824 22.3722317,30.2796706 22.3757808,30.0922771 C22.3800398,29.9048836 22.9131175,30.0780806 23.1672345,30.2690233 C23.6861158,30.6565872 24.4442078,31.5026973 24.4775696,31.2201874 L22.4098524,29.0353492 C22.3055082,28.8231119 22.1862578,28.282226 22.1259228,27.9606758 C22.05636,27.5944066 22.0698467,27.6398353 22.05636,27.2657581 C22.2969903,27.1947757 23.5824815,27.9060193 24.6848382,28.5427314 C25.2803805,28.8848666 25.8595968,29.5024134 26.3394378,29.9524418 C26.8554798,30.4322828 27.1017888,30.7211811 27.5461386,31.2563884 C27.7640545,31.1740488 27.080494,30.177456 26.629046,29.7586599 C26.2088302,29.3725156 25.6849801,28.7535491 25.9256104,28.5065304 C26.2052811,28.2211811 26.5360591,28.2588018 26.9257524,28.3290744 C27.6845542,28.4710392 27.7065588,28.4064452 28.6002271,28.370954 C28.7748438,28.3006814 29.3199886,28.4994321 29.3746451,28.3666951 L29.3746451,28.3666951 Z" id="Fill-380" fill="#FFFFFF"></path>
    </g>
</svg>