<svg fill="none" height="1080" viewBox="0 0 1920 1080" width="1920" xmlns="http://www.w3.org/2000/svg"><path d="m0 0h1920v1080h-1920z" fill="#333"/><path d="m933.515 447.525-44.485 44.475h-51.03c-6.63 0-12 5.37-12 12v72c0 6.625 5.37 12 12 12h51.03l44.485 44.475c7.515 7.515 20.485 2.235 20.485-8.485v-167.98c0-10.73-12.98-15.99-20.485-8.485zm116.665-25.54c-5.59-3.665-13.1-2.12-16.76 3.475-3.67 5.585-2.11 13.09 3.48 16.755 33.13 21.745 52.9 58.3 52.9 97.79s-19.77 76.045-52.9 97.79c-5.59 3.66-7.15 11.17-3.48 16.75 3.52 5.355 10.97 7.28 16.76 3.475 39.96-26.23 63.82-70.355 63.82-118.02s-23.86-91.785-63.82-118.015zm15.82 118.015c0-31.765-16.03-60.97-42.88-78.12-5.6-3.57-13.02-1.91-16.57 3.73-3.54 5.64-1.89 13.105 3.71 16.68 19.87 12.695 31.74 34.265 31.74 57.71s-11.87 45.015-31.74 57.71c-5.6 3.57-7.25 11.035-3.71 16.68 3.26 5.18 10.57 7.57 16.57 3.73 26.85-17.15 42.88-46.35 42.88-78.12zm-70.885-38.435c-5.79-3.165-13.095-1.08-16.305 4.725-3.195 5.805-1.08 13.1 4.725 16.305 6.455 3.545 10.465 10.22 10.465 17.405 0 7.19-4.01 13.86-10.46 17.405-5.805 3.205-7.92 10.5-4.725 16.305 3.215 5.83 10.525 7.9 16.305 4.725 14.11-7.775 22.89-22.5 22.89-38.44s-8.77-30.66-22.895-38.43z" fill="#000"/></svg>
