<svg width="50" height="50" viewBox="0 0 50 50" version="1.1" xmlns="http://www.w3.org/2000/svg" xmlns:xlink="http://www.w3.org/1999/xlink"><title>dailylessons</title><desc>Created using Figma</desc><g id="Canvas" transform="matrix(0.5 0 0 0.5 -58.5 -100)"><clipPath id="clip-0" clip-rule="evenodd"><path d="M 0 0L 1398 0L 1398 646L 0 646L 0 0Z" fill="#FFF"/></clipPath><g id="Frame" clip-path="url(#clip-0)"><path d="M 0 0L 1398 0L 1398 646L 0 646L 0 0Z" fill="#FFF"/><g id="Rectangle"><use xlink:href="#path0_fill" transform="translate(133 213)" fill="#FFF"/><use xlink:href="#path1_stroke" transform="translate(133 213)"/></g><g id="Rectangle"><use xlink:href="#path2_fill" transform="translate(197 229)" fill="#FFF"/><use xlink:href="#path3_stroke" transform="translate(197 229)"/></g><g id="Rectangle"><use xlink:href="#path4_fill" transform="translate(197 213)" fill="#FFF"/><use xlink:href="#path5_stroke" transform="translate(197 213)"/></g><g id="Rectangle"><use xlink:href="#path6_fill" transform="translate(197 280)" fill="#FFF"/><use xlink:href="#path7_stroke" transform="translate(197 280)"/></g><g id="Line 3"><use xlink:href="#path8_stroke" transform="translate(127 225)"/></g><g id="Line 3.1"><use xlink:href="#path8_stroke" transform="translate(127 233)"/></g><g id="Line 3.2"><use xlink:href="#path8_stroke" transform="translate(127 241)"/></g><g id="Line 3.3"><use xlink:href="#path8_stroke" transform="translate(127 249)"/></g><g id="Line 3.4"><use xlink:href="#path8_stroke" transform="translate(127 257)"/></g><g id="Line 3.5"><use xlink:href="#path8_stroke" transform="translate(127 265)"/></g><g id="Line 3.6"><use xlink:href="#path8_stroke" transform="translate(127 273)"/></g><g id="Line 3.7"><use xlink:href="#path8_stroke" transform="translate(127 281)"/></g></g></g><defs><path id="path0_fill" d="M 0 0L 55 0L 55 76L 0 76L 0 0Z"/><path id="path1_stroke" d="M 0 0L 0 -2L -2 -2L -2 0L 0 0ZM 55 0L 57 0L 57 -2L 55 -2L 55 0ZM 55 76L 55 78L 57 78L 57 76L 55 76ZM 0 76L -2 76L -2 78L 0 78L 0 76ZM 0 2L 55 2L 55 -2L 0 -2L 0 2ZM 53 0L 53 76L 57 76L 57 0L 53 0ZM 55 74L 0 74L 0 78L 55 78L 55 74ZM 2 76L 2 0L -2 0L -2 76L 2 76Z"/><path id="path2_fill" d="M 0 0L 8 0L 8 51L 0 51L 0 0Z"/><path id="path3_stroke" d="M 0 0L 0 -2L -2 -2L -2 0L 0 0ZM 8 0L 10 0L 10 -2L 8 -2L 8 0ZM 8 51L 8 53L 10 53L 10 51L 8 51ZM 0 51L -2 51L -2 53L 0 53L 0 51ZM 0 2L 8 2L 8 -2L 0 -2L 0 2ZM 6 0L 6 51L 10 51L 10 0L 6 0ZM 8 49L 0 49L 0 53L 8 53L 8 49ZM 2 51L 2 0L -2 0L -2 51L 2 51Z"/><path id="path4_fill" d="M 4 3L 8 14L 8 16L 0 16L 0 14L 4 3Z"/><path id="path5_stroke" d="M 8 16L 8 18L 10 18L 10 16L 8 16ZM 0 16L -2 16L -2 18L 0 18L 0 16ZM 6 0L 6 -2L 2 -2L 2 0L 6 0ZM 0 14L -1.87959 13.3165L -2 13.6477L -2 14L 0 14ZM 8 14L 10 14L 10 13.6477L 9.87959 13.3165L 8 14ZM 8 14L 0 14L 0 18L 8 18L 8 14ZM 6 3L 6 0L 2 0L 2 3L 6 3ZM 2 16L 2 14L -2 14L -2 16L 2 16ZM 1.87959 14.6835L 5.87959 3.68349L 2.12041 2.31651L -1.87959 13.3165L 1.87959 14.6835ZM 2.12041 3.68349L 6.12041 14.6835L 9.87959 13.3165L 5.87959 2.31651L 2.12041 3.68349ZM 6 14L 6 16L 10 16L 10 14L 6 14Z"/><path id="path6_fill" d="M 0 0L 8 0L 8 5C 8 6.10457 7.10457 7 6 7L 2 7C 0.895431 7 0 6.10457 0 5L 0 0Z"/><path id="path7_stroke" d="M 0 0L 0 -2L -2 -2L -2 0L 0 0ZM 8 0L 10 0L 10 -2L 8 -2L 8 0ZM 0 2L 8 2L 8 -2L 0 -2L 0 2ZM 6 0L 6 5L 10 5L 10 0L 6 0ZM 6 5L 2 5L 2 9L 6 9L 6 5ZM 2 5L 2 0L -2 0L -2 5L 2 5ZM 2 5L 2 5L -2 5C -2 7.20914 -0.209139 9 2 9L 2 5ZM 6 5L 6 9C 8.20914 9 10 7.20914 10 5L 6 5Z"/><path id="path8_stroke" d="M 0 0L 12 0L 12 -4L 0 -4L 0 0Z"/></defs></svg>