<svg viewBox="0 0 100 100" xmlns="http://www.w3.org/2000/svg" xmlns:xlink="http://www.w3.org/1999/xlink"><title>dailylessons</title><desc>Created using Figma</desc><g transform="matrix(2 0 0 2 -200 -100)"><clipPath id="a" clip-rule="evenodd"><path d="M0 0h1398v646H0V0z" fill="#FFF"/></clipPath><g clip-path="url(#a)"><path d="M0 0h1398v646H0V0z" fill="#FFF"/><g transform="translate(108 56)"><use xlink:href="#path0_fill" fill="#FFF"/><use xlink:href="#path1_stroke"/></g><g transform="translate(140 65)"><use xlink:href="#path2_fill" fill="#FFF"/><use xlink:href="#path3_stroke"/></g><g transform="translate(140 56)"><use xlink:href="#path4_fill" fill="#FFF"/><use xlink:href="#path5_stroke"/></g><g transform="translate(140 90)"><use xlink:href="#path6_fill" fill="#FFF"/><use xlink:href="#path7_stroke"/></g><use xlink:href="#path8_stroke" transform="translate(105 62)"/><use xlink:href="#path8_stroke" transform="translate(105 66)"/><use xlink:href="#path8_stroke" transform="translate(105 70)"/><use xlink:href="#path8_stroke" transform="translate(105 74)"/><use xlink:href="#path8_stroke" transform="translate(105 78)"/><use xlink:href="#path8_stroke" transform="translate(105 82)"/><use xlink:href="#path8_stroke" transform="translate(105 86)"/><use xlink:href="#path8_stroke" transform="translate(105 90)"/></g></g><defs><path id="path0_fill" d="M0 0h27v38H0V0z"/><path id="path1_stroke" d="M0 0v-1h-1v1h1zm27 0h1v-1h-1v1zm0 38v1h1v-1h-1zM0 38h-1v1h1v-1zM0 1h27v-2H0v2zm26-1v38h2V0h-2zm1 37H0v2h27v-2zM1 38V0h-2v38h2z"/><path id="path2_fill" d="M0 0h4v25H0V0z"/><path id="path3_stroke" d="M0 0v-1h-1v1h1zm4 0h1v-1H4v1zm0 25v1h1v-1H4zm-4 0h-1v1h1v-1zM0 1h4v-2H0v2zm3-1v25h2V0H3zm1 24H0v2h4v-2zm-3 1V0h-2v25h2z"/><path id="path4_fill" d="M2 2l2 5v2H0V7l2-5z"/><path id="path5_stroke" d="M4 9v1h1V9H4zM0 9h-1v1h1V9zm3-9v-1H1v1h2zM0 7l-.928477-.37139L-1 6.80742V7h1zm4 0h1v-.19258l-.07152-.17881L4 7zm0 1H0v2h4V8zM3 2V0H1v2h2zM1 9V7h-2v2h2zM.928477 7.37139l2.000003-5-1.85696-.74278-1.999997 5 1.856954.74278zm.143043-5l2 5 1.85696-.74278-2-5-1.85696.74278zM3 7v2h2V7H3z"/><path id="path6_fill" d="M0 0h4v2c0 .55228-.44772 1-1 1H1c-.552285 0-1-.44772-1-1V0z"/><path id="path7_stroke" d="M0 0v-1h-1v1h1zm4 0h1v-1H4v1zM0 1h4v-2H0v2zm3-1v2h2V0H3zm0 2H1v2h2V2zM1 2V0h-2v2h2zm0 0h-2c0 1.10457.895431 2 2 2V2zm2 0v2c1.10457 0 2-.89543 2-2H3z"/><path id="path8_stroke" d="M0 0h6v-2H0v2z"/></defs></svg>