<svg fill="none" height="50" viewBox="0 0 50 50" width="50" xmlns="http://www.w3.org/2000/svg"><path d="m8 6h27v38h-27z" fill="#fff" stroke="#2185d0" stroke-linecap="square" stroke-width="2"/><path d="m40 16h4v25h-4z" fill="#fff" stroke="#2185d0" stroke-linecap="square" stroke-width="2"/><path d="m42 8 2 6v2h-4v-2z" fill="#fff"/><g stroke="#2185d0" stroke-width="2"><path d="m42 6v2m0 0-2 6v2h4v-2z" stroke-linecap="square"/><path d="m40 41h4v2c0 .5523-.4477 1-1 1h-2c-.5523 0-1-.4477-1-1z" fill="#fff" stroke-linecap="square"/><path d="m5 15h6"/><path d="m5 11h6"/><path d="m5 19h6"/><path d="m5 23h6"/><path d="m5 27h6"/><path d="m5 31h6"/><path d="m5 35h6"/><path d="m5 39h6"/></g></svg>