<svg fill="none" height="50" viewBox="0 0 50 50" width="50" xmlns="http://www.w3.org/2000/svg"><path d="m8 6h27v38h-27z" fill="#fff" stroke="#2185d0" stroke-linecap="square" stroke-width="2"/><path d="m40 15h4v25h-4z" fill="#fff" stroke="#2185d0" stroke-linecap="square" stroke-width="2"/><g transform="translate(40 6)"><path d="m2 2 2 5v2h-4v-2z" fill="#fff"/><path d="m2 0v2m0 0-2 5v2h4v-2z" stroke="#2185d0" stroke-linecap="square" stroke-width="2"/></g><g stroke="#2185d0" stroke-width="2"><path d="m0 0h4v2c0 .55228-.44772 1-1 1h-2c-.552285 0-1-.44772-1-1z" fill="#fff" stroke-linecap="square" transform="translate(40 40)"/><path d="m5 11h6"/><path d="m5 15h6"/><path d="m5 19h6"/><path d="m5 23h6"/><path d="m5 27h6"/><path d="m5 31h6"/><path d="m5 35h6"/><path d="m5 39h6"/></g></svg>