<svg width="100" height="100" viewBox="0 0 100 100" version="1.1" xmlns="http://www.w3.org/2000/svg" xmlns:xlink="http://www.w3.org/1999/xlink"><title>dailylessons</title><desc>Created using Figma</desc><g id="Canvas" transform="matrix(2 0 0 2 -200 -100)"><clipPath id="clip-0" clip-rule="evenodd"><path d="M 0 0L 1398 0L 1398 646L 0 646L 0 0Z" fill="#FFF"/></clipPath><g id="Frame" clip-path="url(#clip-0)"><path d="M 0 0L 1398 0L 1398 646L 0 646L 0 0Z" fill="#FFF"/><g id="Rectangle"><use xlink:href="#path0_fill" transform="translate(108 56)" fill="#FFF"/><use xlink:href="#path1_stroke" transform="translate(108 56)"/></g><g id="Rectangle"><use xlink:href="#path2_fill" transform="translate(140 65)" fill="#FFF"/><use xlink:href="#path3_stroke" transform="translate(140 65)"/></g><g id="Rectangle"><use xlink:href="#path4_fill" transform="translate(140 56)" fill="#FFF"/><use xlink:href="#path5_stroke" transform="translate(140 56)"/></g><g id="Rectangle"><use xlink:href="#path6_fill" transform="translate(140 90)" fill="#FFF"/><use xlink:href="#path7_stroke" transform="translate(140 90)"/></g><g id="Line 3.8"><use xlink:href="#path8_stroke" transform="translate(105 62)"/></g><g id="Line 3.9"><use xlink:href="#path8_stroke" transform="translate(105 66)"/></g><g id="Line 3.10"><use xlink:href="#path8_stroke" transform="translate(105 70)"/></g><g id="Line 3.11"><use xlink:href="#path8_stroke" transform="translate(105 74)"/></g><g id="Line 3.12"><use xlink:href="#path8_stroke" transform="translate(105 78)"/></g><g id="Line 3.13"><use xlink:href="#path8_stroke" transform="translate(105 82)"/></g><g id="Line 3.14"><use xlink:href="#path8_stroke" transform="translate(105 86)"/></g><g id="Line 3.15"><use xlink:href="#path8_stroke" transform="translate(105 90)"/></g></g></g><defs><path id="path0_fill" d="M 0 0L 27 0L 27 38L 0 38L 0 0Z"/><path id="path1_stroke" d="M 0 0L 0 -1L -1 -1L -1 0L 0 0ZM 27 0L 28 0L 28 -1L 27 -1L 27 0ZM 27 38L 27 39L 28 39L 28 38L 27 38ZM 0 38L -1 38L -1 39L 0 39L 0 38ZM 0 1L 27 1L 27 -1L 0 -1L 0 1ZM 26 0L 26 38L 28 38L 28 0L 26 0ZM 27 37L 0 37L 0 39L 27 39L 27 37ZM 1 38L 1 0L -1 0L -1 38L 1 38Z"/><path id="path2_fill" d="M 0 0L 4 0L 4 25L 0 25L 0 0Z"/><path id="path3_stroke" d="M 0 0L 0 -1L -1 -1L -1 0L 0 0ZM 4 0L 5 0L 5 -1L 4 -1L 4 0ZM 4 25L 4 26L 5 26L 5 25L 4 25ZM 0 25L -1 25L -1 26L 0 26L 0 25ZM 0 1L 4 1L 4 -1L 0 -1L 0 1ZM 3 0L 3 25L 5 25L 5 0L 3 0ZM 4 24L 0 24L 0 26L 4 26L 4 24ZM 1 25L 1 0L -1 0L -1 25L 1 25Z"/><path id="path4_fill" d="M 2 2L 4 7L 4 9L 0 9L 0 7L 2 2Z"/><path id="path5_stroke" d="M 4 9L 4 10L 5 10L 5 9L 4 9ZM 0 9L -1 9L -1 10L 0 10L 0 9ZM 3 0L 3 -1L 1 -1L 1 0L 3 0ZM 0 7L -0.928477 6.62861L -1 6.80742L -1 7L 0 7ZM 4 7L 5 7L 5 6.80742L 4.92848 6.62861L 4 7ZM 4 8L 0 8L 0 10L 4 10L 4 8ZM 3 2L 3 0L 1 0L 1 2L 3 2ZM 1 9L 1 7L -1 7L -1 9L 1 9ZM 0.928477 7.37139L 2.92848 2.37139L 1.07152 1.62861L -0.928477 6.62861L 0.928477 7.37139ZM 1.07152 2.37139L 3.07152 7.37139L 4.92848 6.62861L 2.92848 1.62861L 1.07152 2.37139ZM 3 7L 3 9L 5 9L 5 7L 3 7Z"/><path id="path6_fill" d="M 0 0L 4 0L 4 2C 4 2.55228 3.55228 3 3 3L 1 3C 0.447715 3 0 2.55228 0 2L 0 0Z"/><path id="path7_stroke" d="M 0 0L 0 -1L -1 -1L -1 0L 0 0ZM 4 0L 5 0L 5 -1L 4 -1L 4 0ZM 0 1L 4 1L 4 -1L 0 -1L 0 1ZM 3 0L 3 2L 5 2L 5 0L 3 0ZM 3 2L 1 2L 1 4L 3 4L 3 2ZM 1 2L 1 0L -1 0L -1 2L 1 2ZM 1 2L -1 2C -1 3.10457 -0.104569 4 1 4L 1 2ZM 3 2L 3 4C 4.10457 4 5 3.10457 5 2L 3 2Z"/><path id="path8_stroke" d="M 0 0L 6 0L 6 -2L 0 -2L 0 0Z"/></defs></svg>