<svg fill="none" height="50" viewBox="0 0 50 50" width="50" xmlns="http://www.w3.org/2000/svg"><g stroke="#2185d0" stroke-linecap="square" stroke-width="2"><g fill="#fff"><path d="m5 12h40v30h-40z"/><path d="m5 9h40v30h-40z"/><path d="m10 5h3v8h-3z"/><path d="m37 5h3v8h-3z"/></g><path d="m24 0h6m-6 0v10m0-10h-6m6 0v15m6-15v10m0-10h-24m24 0v5m0 5h-6m6 0v-5m0 5h-30m24 0h-24m24 0v5m-18-15v5m0-5h6m-6 0v15m24-10h-24m24 0h-30m6 0h-6m6 0v10m-6-10v5m0-5v10m0-5v5m24 0h-24m24 0h-6m-18 0h6m0 0h6m0-15v15m0-15h6m-6 15h6m0-15v15" transform="translate(10 18)"/></g></svg>