<svg width="25" height="25" viewBox="0 0 25 25" version="1.1" xmlns="http://www.w3.org/2000/svg" xmlns:xlink="http://www.w3.org/1999/xlink"><title>events</title><desc>Created using Figma</desc><g id="Canvas" transform="matrix(0.5 0 0 0.5 -250 -25)"><clipPath id="clip-0" clip-rule="evenodd"><path d="M 0 0L 1398 0L 1398 646L 0 646L 0 0Z" fill="#FFF"/></clipPath><g id="Frame" clip-path="url(#clip-0)"><path d="M 0 0L 1398 0L 1398 646L 0 646L 0 0Z" fill="#FFF"/><g id="events"><g id="Rectangle"><use xlink:href="#path0_fill" transform="translate(505 62)" fill="#FFF"/><use xlink:href="#path1_stroke" transform="translate(505 62)"/></g><g id="Rectangle"><use xlink:href="#path0_fill" transform="translate(505 59)" fill="#FFF"/><use xlink:href="#path1_stroke" transform="translate(505 59)"/></g><g id="Rectangle"><use xlink:href="#path2_fill" transform="translate(510 55)" fill="#FFF"/><use xlink:href="#path3_stroke" transform="translate(510 55)"/></g><g id="Rectangle"><use xlink:href="#path2_fill" transform="translate(537 55)" fill="#FFF"/><use xlink:href="#path3_stroke" transform="translate(537 55)"/></g><g id="Rectangle"><use xlink:href="#path4_stroke" transform="translate(510 68)"/></g></g></g></g><defs><path id="path0_fill" d="M 0 0L 40 0L 40 30L 0 30L 0 0Z"/><path id="path1_stroke" d="M 0 0L 0 -1L -1 -1L -1 0L 0 0ZM 40 0L 41 0L 41 -1L 40 -1L 40 0ZM 40 30L 40 31L 41 31L 41 30L 40 30ZM 0 30L -1 30L -1 31L 0 31L 0 30ZM 0 1L 40 1L 40 -1L 0 -1L 0 1ZM 39 0L 39 30L 41 30L 41 0L 39 0ZM 40 29L 0 29L 0 31L 40 31L 40 29ZM 1 30L 1 0L -1 0L -1 30L 1 30Z"/><path id="path2_fill" d="M 0 0L 3 0L 3 8L 0 8L 0 0Z"/><path id="path3_stroke" d="M 0 0L 0 -1L -1 -1L -1 0L 0 0ZM 3 0L 4 0L 4 -1L 3 -1L 3 0ZM 3 8L 3 9L 4 9L 4 8L 3 8ZM 0 8L -1 8L -1 9L 0 9L 0 8ZM 0 1L 3 1L 3 -1L 0 -1L 0 1ZM 2 0L 2 8L 4 8L 4 0L 2 0ZM 3 7L 0 7L 0 9L 3 9L 3 7ZM 1 8L 1 0L -1 0L -1 8L 1 8Z"/><path id="path4_stroke" d="M 30 0L 31 0L 31 -1L 30 -1L 30 0ZM 30 10L 30 11L 31 11L 31 10L 30 10ZM 6 0L 6 -1L 5 -1L 5 0L 6 0ZM 0 5L 0 4L -1 4L -1 5L 0 5ZM 24 15L 24 16L 25 16L 25 15L 24 15ZM 0 15L -1 15L -1 16L 0 16L 0 15ZM 24 1L 30 1L 30 -1L 24 -1L 24 1ZM 29 0L 29 10L 31 10L 31 0L 29 0ZM 30 9L 24 9L 24 11L 30 11L 30 9ZM 25 10L 25 0L 23 0L 23 10L 25 10ZM 6 1L 30 1L 30 -1L 6 -1L 6 1ZM 29 0L 29 5L 31 5L 31 0L 29 0ZM 30 4L 6 4L 6 6L 30 6L 30 4ZM 7 5L 7 0L 5 0L 5 5L 7 5ZM 0 6L 30 6L 30 4L 0 4L 0 6ZM 29 5L 29 10L 31 10L 31 5L 29 5ZM 30 9L 0 9L 0 11L 30 11L 30 9ZM 1 10L 1 5L -1 5L -1 10L 1 10ZM 0 11L 24 11L 24 9L 0 9L 0 11ZM 23 10L 23 15L 25 15L 25 10L 23 10ZM 24 14L 0 14L 0 16L 24 16L 24 14ZM 1 15L 1 10L -1 10L -1 15L 1 15ZM 0 6L 6 6L 6 4L 0 4L 0 6ZM 5 5L 5 15L 7 15L 7 5L 5 5ZM 6 14L 0 14L 0 16L 6 16L 6 14ZM 1 15L 1 5L -1 5L -1 15L 1 15ZM 6 1L 12 1L 12 -1L 6 -1L 6 1ZM 11 0L 11 15L 13 15L 13 0L 11 0ZM 12 14L 6 14L 6 16L 12 16L 12 14ZM 7 15L 7 0L 5 0L 5 15L 7 15ZM 12 1L 18 1L 18 -1L 12 -1L 12 1ZM 17 0L 17 15L 19 15L 19 0L 17 0ZM 18 14L 12 14L 12 16L 18 16L 18 14ZM 18 1L 24 1L 24 -1L 18 -1L 18 1ZM 23 0L 23 15L 25 15L 25 0L 23 0ZM 24 14L 18 14L 18 16L 24 16L 24 14Z"/></defs></svg>