<svg width="50" height="50" viewBox="0 0 50 50" version="1.1" xmlns="http://www.w3.org/2000/svg" xmlns:xlink="http://www.w3.org/1999/xlink"><title>events</title><desc>Created using Figma</desc><g id="Canvas" transform="matrix(0.5 0 0 0.5 -406.5 -100)"><clipPath id="clip-0" clip-rule="evenodd"><path d="M 0 0L 1398 0L 1398 646L 0 646L 0 0Z" fill="#FFF"/></clipPath><g id="Frame" clip-path="url(#clip-0)"><path d="M 0 0L 1398 0L 1398 646L 0 646L 0 0Z" fill="#FFF"/><g id="events"><g id="Rectangle"><use xlink:href="#path0_fill" transform="translate(826 224)" fill="#FFF"/><use xlink:href="#path1_stroke" transform="translate(826 224)"/></g><g id="Rectangle"><use xlink:href="#path0_fill" transform="translate(826 218)" fill="#FFF"/><use xlink:href="#path1_stroke" transform="translate(826 218)"/></g><g id="Rectangle"><use xlink:href="#path2_fill" transform="translate(833 210)" fill="#FFF"/><use xlink:href="#path3_stroke" transform="translate(833 210)"/></g><g id="Rectangle"><use xlink:href="#path2_fill" transform="translate(887 210)" fill="#FFF"/><use xlink:href="#path3_stroke" transform="translate(887 210)"/></g><g id="Rectangle"><use xlink:href="#path4_stroke" transform="translate(838 236)"/></g></g></g></g><defs><path id="path0_fill" d="M 0 0L 74 0L 74 60L 0 60L 0 0Z"/><path id="path1_stroke" d="M 0 0L 0 -2L -2 -2L -2 0L 0 0ZM 74 0L 76 0L 76 -2L 74 -2L 74 0ZM 74 60L 74 62L 76 62L 76 60L 74 60ZM 0 60L -2 60L -2 62L 0 62L 0 60ZM 0 2L 74 2L 74 -2L 0 -2L 0 2ZM 72 0L 72 60L 76 60L 76 0L 72 0ZM 74 58L 0 58L 0 62L 74 62L 74 58ZM 2 60L 2 0L -2 0L -2 60L 2 60Z"/><path id="path2_fill" d="M 0 0L 6 0L 6 15L 0 15L 0 0Z"/><path id="path3_stroke" d="M 0 0L 0 -2L -2 -2L -2 0L 0 0ZM 6 0L 8 0L 8 -2L 6 -2L 6 0ZM 6 15L 6 17L 8 17L 8 15L 6 15ZM 0 15L -2 15L -2 17L 0 17L 0 15ZM 0 2L 6 2L 6 -2L 0 -2L 0 2ZM 4 0L 4 15L 8 15L 8 0L 4 0ZM 6 13L 0 13L 0 17L 6 17L 6 13ZM 2 15L 2 0L -2 0L -2 15L 2 15Z"/><path id="path4_stroke" d="M 50 0L 52 0L 52 -2L 50 -2L 50 0ZM 50 20L 50 22L 52 22L 52 20L 50 20ZM 10 0L 10 -2L 8 -2L 8 0L 10 0ZM 0 10L 0 8L -2 8L -2 10L 0 10ZM 40 30L 40 32L 42 32L 42 30L 40 30ZM 0 30L -2 30L -2 32L 0 32L 0 30ZM 40 2L 50 2L 50 -2L 40 -2L 40 2ZM 48 0L 48 20L 52 20L 52 0L 48 0ZM 50 18L 40 18L 40 22L 50 22L 50 18ZM 42 20L 42 0L 38 0L 38 20L 42 20ZM 10 2L 50 2L 50 -2L 10 -2L 10 2ZM 48 0L 48 10L 52 10L 52 0L 48 0ZM 50 8L 10 8L 10 12L 50 12L 50 8ZM 12 10L 12 0L 8 0L 8 10L 12 10ZM 0 12L 50 12L 50 8L 0 8L 0 12ZM 48 10L 48 20L 52 20L 52 10L 48 10ZM 50 18L 0 18L 0 22L 50 22L 50 18ZM 2 20L 2 10L -2 10L -2 20L 2 20ZM 0 22L 40 22L 40 18L 0 18L 0 22ZM 38 20L 38 30L 42 30L 42 20L 38 20ZM 40 28L 0 28L 0 32L 40 32L 40 28ZM 2 30L 2 20L -2 20L -2 30L 2 30ZM 0 12L 10 12L 10 8L 0 8L 0 12ZM 8 10L 8 30L 12 30L 12 10L 8 10ZM 10 28L 0 28L 0 32L 10 32L 10 28ZM 2 30L 2 10L -2 10L -2 30L 2 30ZM 10 2L 20 2L 20 -2L 10 -2L 10 2ZM 18 0L 18 30L 22 30L 22 0L 18 0ZM 20 28L 10 28L 10 32L 20 32L 20 28ZM 12 30L 12 0L 8 0L 8 30L 12 30ZM 20 2L 30 2L 30 -2L 20 -2L 20 2ZM 28 0L 28 30L 32 30L 32 0L 28 0ZM 30 28L 20 28L 20 32L 30 32L 30 28ZM 30 2L 40 2L 40 -2L 30 -2L 30 2ZM 38 0L 38 30L 42 30L 42 0L 38 0ZM 40 28L 30 28L 30 32L 40 32L 40 28Z"/></defs></svg>