<svg viewBox="0 0 100 100" xmlns="http://www.w3.org/2000/svg" xmlns:xlink="http://www.w3.org/1999/xlink"><title>events</title><desc>Created using Figma</desc><g transform="matrix(2 0 0 2 -1000 -100)"><clipPath id="a" clip-rule="evenodd"><path d="M0 0h1398v646H0V0z" fill="#FFF"/></clipPath><g clip-path="url(#a)"><path d="M0 0h1398v646H0V0z" fill="#FFF"/><g transform="translate(505 62)"><use xlink:href="#path0_fill" fill="#FFF"/><use xlink:href="#path1_stroke"/></g><g transform="translate(505 59)"><use xlink:href="#path0_fill" fill="#FFF"/><use xlink:href="#path1_stroke"/></g><g transform="translate(510 55)"><use xlink:href="#path2_fill" fill="#FFF"/><use xlink:href="#path3_stroke"/></g><g transform="translate(537 55)"><use xlink:href="#path2_fill" fill="#FFF"/><use xlink:href="#path3_stroke"/></g><use xlink:href="#path4_stroke" transform="translate(510 68)"/></g></g><defs><path id="path0_fill" d="M0 0h40v30H0V0z"/><path id="path1_stroke" d="M0 0v-1h-1v1h1zm40 0h1v-1h-1v1zm0 30v1h1v-1h-1zM0 30h-1v1h1v-1zM0 1h40v-2H0v2zm39-1v30h2V0h-2zm1 29H0v2h40v-2zM1 30V0h-2v30h2z"/><path id="path2_fill" d="M0 0h3v8H0V0z"/><path id="path3_stroke" d="M0 0v-1h-1v1h1zm3 0h1v-1H3v1zm0 8v1h1V8H3zM0 8h-1v1h1V8zm0-7h3v-2H0v2zm2-1v8h2V0H2zm1 7H0v2h3V7zM1 8V0h-2v8h2z"/><path id="path4_stroke" d="M30 0h1v-1h-1v1zm0 10v1h1v-1h-1zM6 0v-1H5v1h1zM0 5V4h-1v1h1zm24 10v1h1v-1h-1zM0 15h-1v1h1v-1zM24 1h6v-2h-6v2zm5-1v10h2V0h-2zm1 9h-6v2h6V9zm-5 1V0h-2v10h2zM6 1h24v-2H6v2zm23-1v5h2V0h-2zm1 4H6v2h24V4zM7 5V0H5v5h2zM0 6h30V4H0v2zm29-1v5h2V5h-2zm1 4H0v2h30V9zM1 10V5h-2v5h2zm-1 1h24V9H0v2zm23-1v5h2v-5h-2zm1 4H0v2h24v-2zM1 15v-5h-2v5h2zM0 6h6V4H0v2zm5-1v10h2V5H5zm1 9H0v2h6v-2zm-5 1V5h-2v10h2zM6 1h6v-2H6v2zm5-1v15h2V0h-2zm1 14H6v2h6v-2zm-5 1V0H5v15h2zm5-14h6v-2h-6v2zm5-1v15h2V0h-2zm1 14h-6v2h6v-2zm0-13h6v-2h-6v2zm5-1v15h2V0h-2zm1 14h-6v2h6v-2z"/></defs></svg>