<svg width="48" height="48" viewBox="0 0 48 48" fill="none" xmlns="http://www.w3.org/2000/svg">
<path d="M30.8504 36.7143C30.8504 37.1964 30.4754 37.5714 29.9933 37.5714H17.9933C17.5112 37.5714 17.1362 37.1964 17.1362 36.7143V32.4286C17.1362 31.9464 17.5112 31.5714 17.9933 31.5714H20.5647V23H17.9933C17.5112 23 17.1362 22.625 17.1362 22.1429V17.8571C17.1362 17.375 17.5112 17 17.9933 17H26.5647C27.0469 17 27.4219 17.375 27.4219 17.8571V31.5714H29.9933C30.4754 31.5714 30.8504 31.9464 30.8504 32.4286V36.7143ZM27.4219 12.7143C27.4219 13.1964 27.0469 13.5714 26.5647 13.5714H21.4219C20.9397 13.5714 20.5647 13.1964 20.5647 12.7143V8.42857C20.5647 7.94643 20.9397 7.57143 21.4219 7.57143H26.5647C27.0469 7.57143 27.4219 7.94643 27.4219 8.42857V12.7143ZM44.5647 23.8571C44.5647 12.5 35.3504 3.28571 23.9933 3.28571C12.6362 3.28571 3.42188 12.5 3.42188 23.8571C3.42188 35.2143 12.6362 44.4286 23.9933 44.4286C35.3504 44.4286 44.5647 35.2143 44.5647 23.8571Z" fill="#7DCFF5"/>
</svg>
