<svg viewBox="0 0 50 50" xmlns="http://www.w3.org/2000/svg" xmlns:xlink="http://www.w3.org/1999/xlink"><title>lectures</title><desc>Created using Figma</desc><g transform="translate(-300 -50)"><clipPath id="a" clip-rule="evenodd"><path d="M0 0h1398v646H0V0z" fill="#FFF"/></clipPath><g clip-path="url(#a)"><use xlink:href="#path0_stroke" transform="translate(305 58)"/><use xlink:href="#path1_stroke" transform="translate(304 58)"/><use xlink:href="#path1_stroke" transform="translate(304 84)"/><use xlink:href="#path2_stroke" transform="rotate(90 120.75 203.25)"/><g transform="translate(323 86)"><use xlink:href="#path3_fill" fill="#FFF"/><use xlink:href="#path4_stroke"/></g><use xlink:href="#path5_stroke" transform="translate(311 66)"/><g transform="translate(307 57)"><use xlink:href="#path6_fill" fill="#FFF"/><use xlink:href="#path7_stroke"/></g></g></g><defs><path id="path0_stroke" d="M1-2H0v2h1v-2zm38 2h1v-2h-1v2zM1 0h38v-2H1v2z"/><path id="path1_stroke" d="M1-2H0v2h1v-2zm40 2h1v-2h-1v2zM1 0h40v-2H1v2z"/><path id="path2_stroke" d="M1-2H0v2h1v-2zm3 2h1v-2H4v2zM1 0h3v-2H1v2z"/><path id="path3_fill" d="M4 2c0 1.10457-.89543 2-2 2-1.104569 0-2-.89543-2-2C0 .895431.895431 0 2 0c1.10457 0 2 .895431 2 2z"/><path id="path4_stroke" d="M3 2c0 .55228-.44772 1-1 1v2c1.65685 0 3-1.34315 3-3H3zM2 3c-.55228 0-1-.44772-1-1h-2C-1 3.65685.343146 5 2 5V3zM1 2c0-.55228.44772-1 1-1v-2C.343146-1-1 .343146-1 2h2zm1-1c.55228 0 1 .44772 1 1h2C5 .343146 3.65685-1 2-1v2z"/><path id="path5_stroke" d="M-.894427 27.5528l-.447213.8944 1.788854.8944.447213-.8944-1.788854-.8944zM14 0l.8944-.447214L14-2.23607l-.8944 1.788856L14 0zm13.1056 28.4472l.4472.8944 1.7888-.8944-.4472-.8944-1.7888.8944zm-26.211173 0L14.8944.447214l-1.7888-.894428L-.894427 27.5528l1.788854.8944zM13.1056.447214l14 27.999986 1.7888-.8944-14-28.000014-1.7888.894428z"/><path id="path6_fill" d="M0 0h36v26H0V0z"/><path id="path7_stroke" d="M0 0v-1h-1v1h1zm36 0h1v-1h-1v1zm0 26v1h1v-1h-1zM0 26h-1v1h1v-1zM0 1h36v-2H0v2zm35-1v26h2V0h-2zm1 25H0v2h36v-2zM1 26V0h-2v26h2z"/></defs></svg>