<svg width="50" height="50" viewBox="0 0 50 50" version="1.1" xmlns="http://www.w3.org/2000/svg" xmlns:xlink="http://www.w3.org/1999/xlink"><title>lectures</title><desc>Created using Figma</desc><g id="Canvas" transform="matrix(0.5 0 0 0.5 -232.5 -100)"><clipPath id="clip-0" clip-rule="evenodd"><path d="M 0 0L 1398 0L 1398 646L 0 646L 0 0Z" fill="#FFF"/></clipPath><g id="Frame" clip-path="url(#clip-0)"><path d="M 0 0L 1398 0L 1398 646L 0 646L 0 0Z" fill="#FFF"/><g id="Line 2.2"><use xlink:href="#path0_stroke" transform="translate(475 217)"/></g><g id="Line 2.3"><use xlink:href="#path0_stroke" transform="translate(475 217)"/></g><g id="Line 2.5"><use xlink:href="#path0_stroke" transform="translate(475 269)"/></g><g id="Line 2.4"><use xlink:href="#path1_stroke" transform="matrix(6.12323e-17 1 -1 6.12323e-17 513 265)"/></g><g id="Ellipse"><use xlink:href="#path2_fill" transform="translate(512 273)" fill="#FFF"/><use xlink:href="#path3_stroke" transform="translate(512 273)"/></g><g id="Vector"><use xlink:href="#path4_stroke" transform="translate(488 231)"/></g><g id="Rectangle"><use xlink:href="#path5_fill" transform="translate(481 215)" fill="#FFF"/><use xlink:href="#path6_stroke" transform="translate(481 215)"/></g></g></g><defs><path id="path0_stroke" d="M 2 -4L 0 -4L 0 0L 2 0L 2 -4ZM 78 0L 80 0L 80 -4L 78 -4L 78 0ZM 2 0L 78 0L 78 -4L 2 -4L 2 0Z"/><path id="path1_stroke" d="M 2 -4L 0 -4L 0 0L 2 0L 2 -4ZM 8 0L 10 0L 10 -4L 8 -4L 8 0ZM 2 0L 8 0L 8 -4L 2 -4L 2 0Z"/><path id="path2_fill" d="M 6 3C 6 4.65685 4.65685 6 3 6C 1.34315 6 0 4.65685 0 3C 0 1.34315 1.34315 0 3 0C 4.65685 0 6 1.34315 6 3Z"/><path id="path3_stroke" d="M 4 3C 4 3.55228 3.55228 4 3 4L 3 8C 5.76142 8 8 5.76142 8 3L 4 3ZM 3 4C 2.44772 4 2 3.55228 2 3L -2 3C -2 5.76142 0.238576 8 3 8L 3 4ZM 2 3C 2 2.44772 2.44772 2 3 2L 3 -2C 0.238576 -2 -2 0.238576 -2 3L 2 3ZM 3 2C 3.55228 2 4 2.44772 4 3L 8 3C 8 0.238576 5.76142 -2 3 -2L 3 2Z"/><path id="path4_stroke" d="M -1.80748 56.1438L -2.66365 57.9513L 0.951303 59.6636L 1.80748 57.8562L -1.80748 56.1438ZM 27 0L 28.8075 -0.856173L 27 -4.67195L 25.1925 -0.856173L 27 0ZM 52.1925 57.8562L 53.0487 59.6636L 56.6636 57.9513L 55.8075 56.1438L 52.1925 57.8562ZM 1.80748 57.8562L 28.8075 0.856173L 25.1925 -0.856173L -1.80748 56.1438L 1.80748 57.8562ZM 25.1925 0.856173L 52.1925 57.8562L 55.8075 56.1438L 28.8075 -0.856173L 25.1925 0.856173Z"/><path id="path5_fill" d="M 0 0L 68 0L 68 52L 0 52L 0 0Z"/><path id="path6_stroke" d="M 0 0L 0 -2L -2 -2L -2 0L 0 0ZM 68 0L 70 0L 70 -2L 68 -2L 68 0ZM 68 52L 68 54L 70 54L 70 52L 68 52ZM 0 52L -2 52L -2 54L 0 54L 0 52ZM 0 2L 68 2L 68 -2L 0 -2L 0 2ZM 66 0L 66 52L 70 52L 70 0L 66 0ZM 68 50L 0 50L 0 54L 68 54L 68 50ZM 2 52L 2 0L -2 0L -2 52L 2 52Z"/></defs></svg>