<svg viewBox="0 0 40 40" xmlns="http://www.w3.org/2000/svg"><title>Fill 380</title><desc>Created with Sketch.</desc><path d="M40 27.0946905V12.9060193C40 5.80706985 34.1922203 0 27.0946905 0H12.9060193C5.80636002 0 0 5.80706985 0 12.9060193v14.1886712C0 34.1929302 5.80636002 40 12.9060193 40h14.1886712C34.1922203 40 40 34.1929302 40 27.0946905zM11.8604486 9.7749858c.4862294.06246451.8028109.5735378.7240205 1.1101647-.1341568-.1739069-.270443-.2519875-.4833902-.2810903-.2526973-.0369109-.4649347.149063-.7197615.1405451-.4308631-.0163259-.8312038-.4237649-.7630607-.6345826.0894378-.27612151.689239-.40601929 1.2421919-.3350369zm.2065588 2.4141113c.3456843-.0503975.5132027.249858.8617263.2470187.1767461-.0014196.2796706-.0170357.4471891-.0695627-.0475582.4230551-.3130324.7226008-.7233106.810619-.3123226.0667234-.4691937.0163259-.7588019-.1242192-.2186257-.1057638-.3712379-.2754117-.5515332-.4408007.20159-.2612152.4024702-.3776264.7247303-.4230551zm1.3181431-6.48211243c-.2441795.30238501-.3620102.49332765-.6871096.49332765-.3116127 0-.8965077-.17603634-.8638558-.35207268.0681431-.34284498.4500284-.36981829.7928734-.38827371.3109029-.01561613.8659852.11357183.758092.24701874zm2.9897785-.14480409c-.2264338.16325951-.4131175.21010789-.6878194.17674617-.3577513-.04400909-.5607609-.2250142-.758092-.52881886-.2335321-.35704145-.2747019-.68639977-.1384157-1.09454855.4088586-.06104486.7240205.04684838.9412266.4088586.1227996.20655878.1015048.47842136.2271437.68143101.1277683.20584895.189523.27825099.4159568.35633163zm1.2954288-2.28563316c-.1710676.491908-.2690233.43867121-.5508234.491908-.1320273-.22288472-.1540318-.42305508-.068853-.66936399.092987-.26689382.2519875-.41879614.5188813-.49332766.1511926.21223737.189523.42021579.1007951.67078365zm.7403463 3.73012493c.1646792-.12279955.3314878-.19591142.5153322-.1036343.0553663.02626348-.0234241.27186257-.1029244.42092561-.1405452.27115275-.3258092.4060193-.6196764.4592561-.1235093-.2874787-.0411697-.59128336.2072686-.77654741zm2.6192505-2.07836457c-.0624645.41737649-.6565872.10292447-1.0200171-.07027257-.4500284-.21365702-.6942078-.51604202-.8233958-1.02285633.3925327-.20229983.72615-.20229983 1.1186826 0 .4408007.22643384.7708688.77654741.7247303 1.0931289zm1.6538898 2.4318569c-.1078932.44860874-.3002555.71479273-.6885292.95187393-.3201306.19520159-.6800114.38827371-.9362578.11499149-.2612153-.27967065.1298977-.75383305.5444349-.98594549.3222601-.18029529.7233107-.15616127 1.0803521-.08091993zm-.0326519-.42305508c-.2725724.00638841-.2115275-.44789892-.1057638-.70627485.092987-.21223736.2278535-.33148779.4500284-.38614423.1277683.25624645.1277683.48409994 0 .74034639-.0865985.17248722-.1547416.34852357-.3442646.35207269zm.9305792-3.94804089c.0049688.30167519-.0858887.51036343-.3094832.7048552-.2796707.24488926-.7644804.47558205-.9319989.14125497-.1519023-.30167519.1660988-.56076094.4471891-.73963657.266184-.16964793.496167-.19875071.794293-.1064736zm.0674333 1.8689665c-.0936968.26689381-.2747019.41808631-.5501136.45783645-.2072686.02981261-.3116127-.16822828-.5167518-.14054514-.1625497.02129472-.2590858.0653038-.3797558.17532652.0049687-.42802385.3066439-.76660988.7233106-.81061897.3052243-.0326519.5366269.0681431.7233106.31800114zm2.6561613-.24701874c-.0716923.50681431-.3087735.83475298-.7595117 1.0576377-.3861442.19023283-1.072544.47203294-1.1016468.0354912-.0113571-.16609881.2988359-.64948892.6537479-.88231118.4017604-.26263487.7431857-.32226008 1.2074106-.21081772zm.3087734 2.74914821c-.1064736.39537195-.3939523.67575241-.7836457.62393526-.2810903-.03762067-.4131175-.22856331-.6963373-.20088018-.2235945.02413402-.3598807.088728-.5188813.24701874.0056786-.47771153.2306928-.82552527.6558774-1.02356615.4926178-.2250142.9724588.0149063 1.3429869.35349233zm-.8957978 1.7270017c.1866837.23140261.245599.44222033.2072685.7403464-.0411697.32651902-.1320272.76377062-.4464792.70485522-.2796707-.0503975-.3172913-.3811755-.3123226-.66936402.0070983-.37407723.2051392-.6544577.5515333-.7758376zm2.7583759 1.19960252c-.0191653.3840147-.2044293.6587166-.5501136.8106189-.2867689.1235094-.6700738.2526974-.7928734-.036201-.1213799-.278251.1980409-.4663543.4464793-.6352924.2952868-.1987507.556502-.2399205.8965077-.1391255zm10.4202158 16.6269165c0 6.7064168-5.4869393 12.1940659-12.1926463 12.1940659h-13.407155c-6.70570697 0-12.19335604-5.4876491-12.19335604-12.1940659V20H18.1296139l.0738216-2.6987507c.0305225-.8858603-.132737-1.8959398-.2754116-2.1862578-.1469336-.2988359-.9334186-.7793867-1.5864566-.9525838-.9305792-.2455991-1.6794435-.2526973-2.7597956-.3513628-.5621806-.0511074-.9291595.1057637-1.4466212-.1057638.3109029-.1405452.935548-.0880182 1.5694208-.1597104.6203861-.0702726 1.0817717-.1795855 1.2244463-.544435.0667235-.1767461-.8879898-.7084043-1.5176036-1.0576377-.5295287-.2952868-1.3444066-.4585463-1.4132595-.6367121.4812606 0 .6587166.1526122 1.0597671.2768314l1.0760932.3769165c-.2200455-.2583759-.3364566-.4166667-.5160421-.7048552-.2044293-.3279387-.552243-.5827655-.552243-.899347l1.0349233 1.0931289c.3776264.5004259.7155026.7375071 1.3103351.9170926.2988359.0880182.5330778.129188.8446905.1405451.6828506.0234242 1.5232822-.1341567 1.7241624-.3180011.1362862-.124929-2.0698467-1.6758944-2.6327371-2.1429585-.8205565-.68143105-2.6029245-.85675757-2.306218-.92561049.5068143-.10576377 1.991766.45428734 1.8874219.22643384-.1646792-.35633163-.1057638-1.06544577 0-.82126632.0873083.90857467.6459398 1.29329926 1.1527541 1.57296987 1.4075809.8340432 2.1720613.8745032 2.0854628.3272289-.1604202-1.01930723-.4244747-1.66382739-1.1697899-2.36087452-.8943782-.83617263-1.8611584-.81061897-2.9649347-.95187394-.556502-.07027257-1.4302953-.31516184-1.5672913-.45712663.3215503.02342419.5934128.0177456.8737933.05252697.16113.0205849 2.1486371.22430437 1.5055366-.24346962-.5110732-.37194776-.6913685-.65587734-.9540034-1.13358887-.2583759-.46990346-.4102782-.96607041-.2718626-1.21592845.3456843.77725724 1.0349234 1.79869393 1.8604487 2.29344123.5742475.34142532 1.2081203.33503691 1.483532.12279954.2157865-.16538898-.0255536-1.24290176-.2008801-1.87748438-.1433845-.51959114-.4223453-.9092845-.6175469-1.38202726.3442646.21152754.5721181.54940375.721891.85178876.1235093.25269733.3279386.70911414.4308631.99162408.1724872-.07027258.2001704-.33432709.2590858-.47487224.1100227-.26476433.0752413-.63884156.2150766-.60335036.0674333 1.23296422.105054 1.16340147.0205849 2.05565019-.0589154.57992618-.1121522.90999433-.2420499 1.4778535.2349517.4266042.3818852.65942646.6544576 1.05905735.3137422.45712663.6729132 1.11016468.826945 1.05692788l.2058489-1.16269165c.0582056-.57566723.0936968-.83617263.0340716-1.41113004-.0702726-.71550256-.2576661-1.09454855-.4116979-1.79727428-.1554515-.69988642-.3804657-1.62194775-.3804657-1.7979841.1384157.1064736.5181715 1.2322544.8297842 2.01022147.1497729.37691652.3165815.54940375.5508234.88089154.0865986.14125497.1845543.21081772.3435548.24701874.2718626.05820556.3804657-.10718342.6225156-.35207269.2186258-.33219761.3201307-.54017604.4464793-.91851221.1511925-.44718909.1476434-.72756956.2072686-1.19747302.0823396-.65587735.1057638-1.02995458.1029245-1.69222033.2072686.14125496.2086882.98381601.24205 1.61981828.031942.62109597.1022146 1.05976718-.068853 1.58858603-.1377058.38898353-.9064452 1.32169222-1.1719193 1.83205565-.266184.51107326-.036201 1.06686542.1029244 1.58645656.1391255.52030097.3123226 1.30323682.5557922 1.69293012.1795855-.0936967.4812607-.85604767.8262351-1.37563881.2441794-.36484951.4258944-.46848381.6509086-.84611016.3861442-.64026122.491908-1.0633163.7595116-1.76178308.270443-.70414537.4486088-1.76320273.621096-1.83418512-.0220046.47203293-.0511073.7375071-.1384157 1.19889267-.0958262.50468484-.3442646 1.12294151-.3442646 1.26916525 0 .14551391.3641397-.05607609.4500284-.12847814.5408858-.45428733.9291596-.99943214 1.0675752-.85746735-1.1037762 1.16198183-1.6908007 1.93781943-2.2771152 2.71294719-.2803805.37052811-.4855196.80068143-.4812607.98807495.004259.1866837.5373367.0141965.7914537-.177456.5181715-.38756386 1.2769733-1.23296421 1.3096252-.95045427l-2.0670073 2.18412837c-.1043442.2122373-.2235946.753833-.2846395 1.0746734-.0688529.3662692-.0553662.3215503-.0688529.6949177.2406303.0709824 1.5254117-.6402612 2.6284782-1.2762635.5955423-.342845 1.1740488-.959682 1.6545996-1.4097104.516042-.47984097.762351-.76944915 1.2067008-1.30394659.2179159.08162976-.4656446 1.07893239-.9178024 1.49701869-.419506.3861443-.9440659 1.0051108-.7027258 1.2521295.2796707.2853493.6104487.2484384 1.000142.177456.7588018-.141255.7808064-.076661 1.6744747-.0411698.1746167.0702726.7190517-.1284781.774418.0035491.0667234.1731971-.105054.1433845-.4145372.2129472-1.2407723.141255-1.9747303.0447189-3.205565.4223453-1.0356332.3165815-1.5339296.3066439-2.2430438.9532936-.4358319.3975014-.8276547.8808915-.895088 1.2315446.5160421.0716922 1.2940091-.1838445 2.1024986-.3868541 1.1030664-.2747019 1.6375639-.7680295 2.7590858-.9518739.3996308-.0653039.628904-.0873084 1.0327938-.105054-.4337024.225724-.6750426.3584611-1.1016468.5976718-.3123225.1753265-.4883589.2768313-.7950028.4592561.4876491.112862.7509937.2342419 1.2414821.3172913.415247.0695628.8631459.0695628.8269449.2477286-1.0335037-.0362011-2.1010789-.1064736-2.6185406-.0709824-.249858.0156161-1.0668654.2512777-1.689381.5636002-.7928734.3172913-2.2068427.9745883-2.2068427 1.1634015 0 .5273992-.0198751.6338728.0475582 1.5850369L22.3147359 20h16.5821977v6.9136854zM26.7511357 16.1350085c-.2392107-.3016752-.4081488-.6793015-.1696479-.9845258.1164111-.1483532.7957127.0376207 1.0342135.4578364.1689381.3002556.261925.5976718.3726576.923481-.4755821.0944066-.9014764.0262635-1.2372232-.3967916zm-2.8591709-4.5797842c-.3591709.1909427-.746025.4060193-.9518739.0468484-.2108178-.3676888.2200454-.6821408.592703-.8801817.3591709-.1902329.8155877-.1859739 1.0477001-.0127769-.1220897.4102783-.3172913.6473595-.6885292.8461102zM13.4809767 7.58730835c.8198467-.21081772 1.1676604-.03762067 1.1676604-.03762067-.4358319.20371948-.2853492.63813174-1.1442362.82694492-.2952868.06459398-.8567575.05323679-.8567575.05323679 0-.1717774.2668938-.69775695.8333333-.84256104zm2.3381602.55366269c.2427597 0 .8468199.13202726.943356.7346678.0972459.60264055-.2441794.96039182-.2441794.96039182s-.5827655-.64735945-.6800114-.85817717c-.0958262-.21081771-.0191652-.83688245-.0191652-.83688245zm.1440942 3.09625216c.2122374.1724872.4507382.3769165.2846394.5998012-.1746167.2314026-.5224304.0823396-.7694491-.0709824-.2874788-.1810051-.4273141-.3967916-.4826803-.7396365.3570414-.1483533.729699.0205848.96749.2108177zm-2.850653 3.2197615c.4124077-.1327371 1.0597672-.3329075 1.1044861.1064736.0312322.3208404-.2477286.4699034-.5188813.6338728-.4635151.2810903-.9603919.2434696-1.3784782-.1057638.2044293-.3442646.4180863-.5146224.7928734-.6345826zm16.262067 13.9097104c.0667234-.1724873-.105054-.1426747-.4145372-.2122374-1.2407723-.141255-1.9747303-.0454287-3.205565-.4230551-1.0356332-.3158717-1.5339296-.3066439-2.2430438-.9532936-.4358319-.3967916-.8276547-.8801817-.895088-1.2315445.5160421-.0716923 1.2940091.1845542 2.1024986.3875638 1.1030664.2747019 1.6375639.7680296 2.7590858.9511641.3996308.0660137.628904.0880182 1.0327938.105054-.4337024-.225724-.6750426-.3584611-1.1016468-.596962-.3123225-.1760363-.4883589-.2775411-.794293-.4592561.4869393-.112862.7502839-.2349517 1.2407723-.3180011.415247-.0695627.8631459-.0695627.8269449-.2470187-1.0335037.036201-2.1010789.1057637-2.6185406.0709824-.249858-.016326-1.0661556-.2519875-1.689381-.5636003-.7921636-.3180011-2.2068427-.9745883-2.2068427-1.1634014 0-.5281091-.0198751-.6338728.0475582-1.5857468l.1071834-1.9938955h-4.1964793l.0773708 2.838586c.0312323.8858603-.132737 1.89523-.2754116 2.1862578-.1469336.2988359-.9327087.7793868-1.5864566.9525838-.9305792.2448893-1.6787337.2519875-2.7597956.3513629-.5621806.0511073-.9291595-.1064736-1.4466212.1057637.3109029.1405452.935548.0873084 1.5694208.1590006.6203861.0702726 1.0817717.1802953 1.2244463.5451448.0667235.1760364-.8879898.7076945-1.5168938 1.0569279-.5302385.2959966-1.3451164.4592561-1.4139693.6374219.4812606 0 .6587166-.1526121 1.0597671-.2775412l1.0760932-.3762067c-.2200455.258376-.3364566.4159569-.5160421.7048552-.2044293.3272289-.552243.5827655-.552243.8986372l1.0356332-1.0931289c.3769165-.5004259.7147927-.7367973 1.3096252-.9170926.2988359-.0880182.5330778-.129188.8446905-.1398353.6828506-.0234242 1.5232822.1334469 1.7248722.3172913.1355764.1256388-2.0705565 1.6766042-2.6327371 2.1436684-.8212663.6807211-2.6036343.8560477-2.3069278.9256104.5068143.105054 1.991766-.4542873 1.8874219-.2264338-.1639694.3563316-.1057638 1.0654457 0 .8205565.0873083-.9078649.6459398-1.2932993 1.1527541-1.5722601 1.4075809-.8340432 2.1720613-.8745031 2.0854628-.3279387-.1597104 1.0193072-.4244747 1.6645372-1.1697899 2.3608745-.8943782.8361727-1.8611584.810619-2.9649347.951874-.556502.0709824-1.4302953.3158716-1.5672913.4571266.3215503-.0234242.5934128-.0177456.8737933-.0518172.16113-.0205848 2.1486371-.2250142 1.5055366.2434697-.5110732.3712379-.6913685.6558773-.9540034 1.1335888-.2576661.4691937-.4102782.9653606-.2718626 1.2159285.3456843-.7779671 1.0349234-1.7994038 1.8604487-2.2934412.5742475-.3421352 1.2081203-.335037 1.483532-.1227996.2157865.1646792-.0255536 1.2429018-.2008801 1.8774844-.1426747.5188813-.4223453.9092845-.6175469 1.3813174.3442646-.2108177.5721181-.5494037.721891-.8510789.1235093-.2534072.3286485-.7091141.4308631-.9923339.1724872.0709824.2001704.3350369.2590858.4748722.1100227.2647644.0752413.6388416.2150766.6040602.0674333-1.233674.1057638-1.1634015.0205849-2.0556502-.0589154-.5799262-.1121522-.9099943-.2413401-1.4785633.2349517-.4258944.3811754-.6587166.6537478-1.0583475.3144521-.4578365.6729132-1.1108745.8276548-1.0569279l.2051391 1.1626916c.0582056.5749575.0936968.8354629.0340716 1.4104203-.0702726.7155025-.2576661 1.0945485-.4116979 1.7979841-.1554515.6998864-.3804657 1.6212379-.3804657 1.7979841.1384157-.1064736.5181715-1.2329643.8297842-2.0102215.1497729-.3769165.3165815-.5501136.5508234-.8808915.0865986-.1419648.1845543-.2108178.3435548-.2470188.2718626-.0582055.3804657.1064736.6225156.3520727.2186258.3321976.3201307.5394662.4464793.9178024.1511925.4478989.1483532.7275696.2072686 1.1981828.0823396.6558774.1057638 1.0299546.1029245 1.6922204.2079784-.1419648.2086882-.9845259.24205-1.6198183.031942-.6218058.1022146-1.060477-.068853-1.5892959-.1377058-.3882737-.9064452-1.3209824-1.1719193-1.8320556-.266184-.5110733-.036201-1.0661556.1029244-1.5864566.1391255-.5195911.3123226-1.3032368.5557922-1.6922203.1795855.0936968.4812607.8560477.8262351 1.3756388.2441794.3648496.4258944.467774.6509086.8461102.3861442.6395514.491908 1.0633163.7595116 1.7617831.2711528.7034355.4486088 1.7632027.621096 1.8334753-.0220046-.4713231-.0511073-.7375071-.1384157-1.1981829-.0951164-.5046848-.3442646-1.1236513-.3442646-1.2691652 0-.1455139.3641397.0560761.4500284.1277683.5415957.4542873.9291596.9994321 1.0675752.8581772-1.1037762-1.1626917-1.6908007-1.9385293-2.2771152-2.7129472-.2803805-.3705281-.4848098-.8006815-.4812607-.988075.004259-.1873935.5373367-.0141965.7914537.1767462.5188813.3875639 1.2769733 1.233674 1.3103351.9511641l-2.0677172-2.1848382c-.1043442-.2122373-.2235946-.7531232-.2839296-1.0746734-.0695628-.3662692-.0560761-.3208405-.0695628-.6949177.2406303-.0709824 1.5261215.6402612 2.6284782 1.2769733.5955423.3421352 1.1747586.959682 1.6545996 1.4097104.516042.479841.762351.7687393 1.2067008 1.3039466.2179159-.0823396-.4656446-1.0789324-.9170926-1.4977285-.4202158-.3861443-.9440659-1.0051108-.7034356-1.2521295.2796707-.2853493.6104487-.2477286 1.000142-.177456.7588018.1419648.7808064.0773708 1.6744747.0418796.1746167-.0702726.7197615.1284781.774418-.0042589z" fill="#FFF" fill-rule="evenodd"/></svg>