<svg width="20" height="21" viewBox="0 0 20 21" fill="none" xmlns="http://www.w3.org/2000/svg">
<path d="M8.8 14.2375L13.47 10.8833C13.74 10.6917 13.74 10.3083 13.47 10.1167L8.8 6.76251C8.47 6.52292 8 6.75292 8 7.14584V13.8542C8 14.2471 8.47 14.4771 8.8 14.2375ZM10 0.916672C4.48 0.916672 0 5.21001 0 10.5C0 15.79 4.48 20.0833 10 20.0833C15.52 20.0833 20 15.79 20 10.5C20 5.21001 15.52 0.916672 10 0.916672ZM10 18.1667C5.59 18.1667 2 14.7263 2 10.5C2 6.27376 5.59 2.83334 10 2.83334C14.41 2.83334 18 6.27376 18 10.5C18 14.7263 14.41 18.1667 10 18.1667Z" fill="black" fill-opacity="0.54"/>
</svg>
