<svg viewBox="0 0 50 50" xmlns="http://www.w3.org/2000/svg" xmlns:xlink="http://www.w3.org/1999/xlink"><title>programs</title><desc>Created using Figma</desc><g transform="translate(-200 -50)"><clipPath id="a" clip-rule="evenodd"><path d="M0 0h1398v646H0V0z" fill="#FFF"/></clipPath><g clip-path="url(#a)"><g transform="translate(204 63)"><use xlink:href="#path0_fill" fill="#FFF"/><use xlink:href="#path1_stroke"/></g><g transform="translate(204 58)"><use xlink:href="#path2_fill" fill="#FFF"/><use xlink:href="#path3_stroke"/></g><use xlink:href="#path4_stroke" transform="translate(213 90)"/><use xlink:href="#path5_stroke" transform="rotate(90 70.5 154.5)"/></g></g><defs><path id="path0_fill" d="M0 0h42v21H0V0z"/><path id="path1_stroke" d="M0 0v-1h-1v1h1zm42 0h1v-1h-1v1zm0 21v1h1v-1h-1zM0 21h-1v1h1v-1zM0 1h42v-2H0v2zm41-1v21h2V0h-2zm1 20H0v2h42v-2zM1 21V0h-2v21h2z"/><path id="path2_fill" d="M0 0h42v23H0V0z"/><path id="path3_stroke" d="M0 0v-1h-1v1h1zm42 0h1v-1h-1v1zm0 23v1h1v-1h-1zM0 23h-1v1h1v-1zM0 1h42v-2H0v2zm41-1v23h2V0h-2zm1 22H0v2h42v-2zM1 23V0h-2v23h2z"/><path id="path4_stroke" d="M24 1h1v-2h-1v2zM0-1h-1v2h1v-2zm24 0H0v2h24v-2z"/><path id="path5_stroke" d="M6 1h1v-2H6v2zM0-1h-1v2h1v-2zm6 0H0v2h6v-2z"/></defs></svg>