<svg width="50" height="50" viewBox="0 0 50 50" version="1.1" xmlns="http://www.w3.org/2000/svg" xmlns:xlink="http://www.w3.org/1999/xlink"><title>programs</title><desc>Created using Figma</desc><g id="Canvas" transform="matrix(0.5 0 0 0.5 -145.5 -100)"><clipPath id="clip-0" clip-rule="evenodd"><path d="M 0 0L 1398 0L 1398 646L 0 646L 0 0Z" fill="#FFF"/></clipPath><g id="Frame" clip-path="url(#clip-0)"><path d="M 0 0L 1398 0L 1398 646L 0 646L 0 0Z" fill="#FFF"/><g id="Rectangle"><use xlink:href="#path0_fill" transform="translate(303 226)" fill="#FFF"/><use xlink:href="#path1_stroke" transform="translate(303 226)"/></g><g id="Rectangle"><use xlink:href="#path0_fill" transform="translate(303 220)" fill="#FFF"/><use xlink:href="#path1_stroke" transform="translate(303 220)"/></g><g id="Rectangle"><use xlink:href="#path2_stroke" transform="translate(316 281)"/></g><g id="Rectangle"><use xlink:href="#path3_stroke" transform="matrix(6.12323e-17 1 -1 6.12323e-17 341 269)"/></g></g></g><defs><path id="path0_fill" d="M 0 0L 76 0L 76 43L 0 43L 0 0Z"/><path id="path1_stroke" d="M 0 0L 0 -2L -2 -2L -2 0L 0 0ZM 76 0L 78 0L 78 -2L 76 -2L 76 0ZM 76 43L 76 45L 78 45L 78 43L 76 43ZM 0 43L -2 43L -2 45L 0 45L 0 43ZM 0 2L 76 2L 76 -2L 0 -2L 0 2ZM 74 0L 74 43L 78 43L 78 0L 74 0ZM 76 41L 0 41L 0 45L 76 45L 76 41ZM 2 43L 2 0L -2 0L -2 43L 2 43Z"/><path id="path2_stroke" d="M 50 2L 52 2L 52 -2L 50 -2L 50 2ZM 0 -2L -2 -2L -2 2L 0 2L 0 -2ZM 50 -2L 0 -2L 0 2L 50 2L 50 -2Z"/><path id="path3_stroke" d="M 12 2L 14 2L 14 -2L 12 -2L 12 2ZM 0 -2L -2 -2L -2 2L 0 2L 0 -2ZM 12 -2L 0 -2L 0 2L 12 2L 12 -2Z"/></defs></svg>