<svg viewBox="0 0 50 50" xmlns="http://www.w3.org/2000/svg" xmlns:xlink="http://www.w3.org/1999/xlink"><title>publications</title><desc>Created using Figma</desc><g transform="translate(-600 -50)"><clipPath id="a" clip-rule="evenodd"><path d="M0 0h1398v646H0V0z" fill="#FFF"/></clipPath><g clip-path="url(#a)"><g transform="matrix(-1 0 0 1 620 61)"><use xlink:href="#path0_fill" fill="#FFF"/><use xlink:href="#path1_stroke"/></g><g transform="translate(608.5 58)"><use xlink:href="#path2_fill" fill="#FFF"/><use xlink:href="#path3_stroke"/></g><g transform="translate(617 63)"><use xlink:href="#path4_fill"/><use xlink:href="#path5_stroke"/></g><g transform="translate(617 71)"><use xlink:href="#path6_fill" fill="#FFF"/><use xlink:href="#path7_stroke"/></g><g transform="translate(625 71)"><use xlink:href="#path8_fill" fill="#FFF"/><use xlink:href="#path9_stroke"/></g><use xlink:href="#path10_stroke" transform="translate(624 80)"/><use xlink:href="#path10_stroke" transform="translate(624 84)"/></g></g><defs><path id="path0_fill" d="M14 0H0v30h11c1.6569 0 3-1.3431 3-3V0z"/><path id="path1_stroke" d="M14 0h1v-1h-1v1zM0 0v-1h-1v1h1zm0 30h-1v1h1v-1zM-1 0v30h2V0h-2zm1 31h11v-2H0v2zm15-4V0h-2v27h2zM14-1H0v2h14v-2zm-3 32c2.2091 0 4-1.7909 4-4h-2c0 1.1046-.8954 2-2 2v2z"/><path id="path2_fill" d="M3.5 0h32v30c0 1.6569-1.3431 3-3 3H0h.5c1.65685 0 3-1.3431 3-3V0z"/><path id="path3_stroke" d="M3.5 0v-1h-1v1h1zm32 0h1v-1h-1v1zm-32 1h32v-2h-32v2zm31-1v30h2V0h-2zm-2 32H0v2h32.5v-2zM0 34h.5v-2H0v2zm4.5-4V0h-2v30h2zm-4 4c2.20914 0 4-1.7909 4-4h-2c0 1.1046-.89543 2-2 2v2zm34-4c0 1.1046-.8954 2-2 2v2c2.2091 0 4-1.7909 4-4h-2z"/><path id="path4_fill" d="M0 0h22v4H0V0z"/><path id="path5_stroke" d="M0 0v-1h-1v1h1zm22 0h1v-1h-1v1zm0 4v1h1V4h-1zM0 4h-1v1h1V4zm0-3h22v-2H0v2zm21-1v4h2V0h-2zm1 3H0v2h22V3zM1 4V0h-2v4h2z"/><path id="path6_fill" d="M0 0h4v9H0V0z"/><path id="path7_stroke" d="M0 0v-1h-1v1h1zm4 0h1v-1H4v1zm0 9v1h1V9H4zM0 9h-1v1h1V9zm0-8h4v-2H0v2zm3-1v9h2V0H3zm1 8H0v2h4V8zM1 9V0h-2v9h2z"/><path id="path8_fill" d="M0 0h14v4H0V0z"/><path id="path9_stroke" d="M0 0v-1h-1v1h1zm14 0h1v-1h-1v1zm0 4v1h1V4h-1zM0 4h-1v1h1V4zm0-3h14v-2H0v2zm13-1v4h2V0h-2zm1 3H0v2h14V3zM1 4V0h-2v4h2z"/><path id="path10_stroke" d="M1-2H0v2h1v-2zm14 2h1v-2h-1v2zM1 0h14v-2H1v2z"/></defs></svg>