<svg width="50" height="50" viewBox="0 0 50 50" version="1.1" xmlns="http://www.w3.org/2000/svg" xmlns:xlink="http://www.w3.org/1999/xlink"><title>publications</title><desc>Created using Figma</desc><g id="Canvas" transform="matrix(0.5 0 0 0.5 -493.5 -100)"><clipPath id="clip-0" clip-rule="evenodd"><path d="M 0 0L 1398 0L 1398 646L 0 646L 0 0Z" fill="#FFF"/></clipPath><g id="Frame" clip-path="url(#clip-0)"><path d="M 0 0L 1398 0L 1398 646L 0 646L 0 0Z" fill="#FFF"/><g id="publications"><g id="Rectangle"><use xlink:href="#path0_fill" transform="matrix(-1 0 0 1 1027 222)" fill="#FFF"/><use xlink:href="#path1_stroke" transform="matrix(-1 0 0 1 1027 222)"/></g><g id="Rectangle"><use xlink:href="#path2_fill" transform="translate(1004 216)" fill="#FFF"/><use xlink:href="#path3_stroke" transform="translate(1004 216)"/></g><g id="Rectangle"><use xlink:href="#path4_fill" transform="translate(1021 226)"/><use xlink:href="#path5_stroke" transform="translate(1021 226)"/></g><g id="Rectangle"><use xlink:href="#path6_fill" transform="translate(1021 242)" fill="#FFF"/><use xlink:href="#path7_stroke" transform="translate(1021 242)"/></g><g id="Rectangle"><use xlink:href="#path8_fill" transform="translate(1037 242)" fill="#FFF"/><use xlink:href="#path9_stroke" transform="translate(1037 242)"/></g><g id="Line"><use xlink:href="#path10_stroke" transform="translate(1035 260)"/></g><g id="Line"><use xlink:href="#path10_stroke" transform="translate(1035 268)"/></g></g></g></g><defs><path id="path0_fill" d="M 28 0L 0 0L 0 60L 22 60C 25.3137 60 28 57.3137 28 54L 28 0Z"/><path id="path1_stroke" d="M 28 0L 30 0L 30 -2L 28 -2L 28 0ZM 0 0L 0 -2L -2 -2L -2 0L 0 0ZM 0 60L -2 60L -2 62L 0 62L 0 60ZM -2 0L -2 60L 2 60L 2 0L -2 0ZM 0 62L 22 62L 22 58L 0 58L 0 62ZM 30 54L 30 0L 26 0L 26 54L 30 54ZM 28 -2L 0 -2L 0 2L 28 2L 28 -2ZM 22 62C 26.4183 62 30 58.4183 30 54L 26 54C 26 56.2091 24.2091 58 22 58L 22 62Z"/><path id="path2_fill" d="M 7 0L 71 0L 71 60C 71 63.3137 68.3137 66 65 66L 0 66L 1 66C 4.31371 66 7 63.3137 7 60L 7 0Z"/><path id="path3_stroke" d="M 7 0L 7 -2L 5 -2L 5 0L 7 0ZM 71 0L 73 0L 73 -2L 71 -2L 71 0ZM 7 2L 71 2L 71 -2L 7 -2L 7 2ZM 69 0L 69 60L 73 60L 73 0L 69 0ZM 65 64L 0 64L 0 68L 65 68L 65 64ZM 0 68L 1 68L 1 64L 0 64L 0 68ZM 9 60L 9 0L 5 0L 5 60L 9 60ZM 1 68C 5.41828 68 9 64.4183 9 60L 5 60C 5 62.2091 3.20914 64 1 64L 1 68ZM 69 60C 69 62.2091 67.2091 64 65 64L 65 68C 69.4183 68 73 64.4183 73 60L 69 60Z"/><path id="path4_fill" d="M 0 0L 44 0L 44 8L 0 8L 0 0Z"/><path id="path5_stroke" d="M 0 0L 0 -2L -2 -2L -2 0L 0 0ZM 44 0L 46 0L 46 -2L 44 -2L 44 0ZM 44 8L 44 10L 46 10L 46 8L 44 8ZM 0 8L -2 8L -2 10L 0 10L 0 8ZM 0 2L 44 2L 44 -2L 0 -2L 0 2ZM 42 0L 42 8L 46 8L 46 0L 42 0ZM 44 6L 0 6L 0 10L 44 10L 44 6ZM 2 8L 2 0L -2 0L -2 8L 2 8Z"/><path id="path6_fill" d="M 0 0L 8 0L 8 18L 0 18L 0 0Z"/><path id="path7_stroke" d="M 0 0L 0 -2L -2 -2L -2 0L 0 0ZM 8 0L 10 0L 10 -2L 8 -2L 8 0ZM 8 18L 8 20L 10 20L 10 18L 8 18ZM 0 18L -2 18L -2 20L 0 20L 0 18ZM 0 2L 8 2L 8 -2L 0 -2L 0 2ZM 6 0L 6 18L 10 18L 10 0L 6 0ZM 8 16L 0 16L 0 20L 8 20L 8 16ZM 2 18L 2 0L -2 0L -2 18L 2 18Z"/><path id="path8_fill" d="M 0 0L 28 0L 28 8L 0 8L 0 0Z"/><path id="path9_stroke" d="M 0 0L 0 -2L -2 -2L -2 0L 0 0ZM 28 0L 30 0L 30 -2L 28 -2L 28 0ZM 28 8L 28 10L 30 10L 30 8L 28 8ZM 0 8L -2 8L -2 10L 0 10L 0 8ZM 0 2L 28 2L 28 -2L 0 -2L 0 2ZM 26 0L 26 8L 30 8L 30 0L 26 0ZM 28 6L 0 6L 0 10L 28 10L 28 6ZM 2 8L 2 0L -2 0L -2 8L 2 8Z"/><path id="path10_stroke" d="M 2 -4L 0 -4L 0 0L 2 0L 2 -4ZM 30 0L 32 0L 32 -4L 30 -4L 30 0ZM 2 0L 30 0L 30 -4L 2 -4L 2 0Z"/></defs></svg>