<svg fill="none" height="50" viewBox="0 0 50 50" width="50" xmlns="http://www.w3.org/2000/svg"><g stroke="#2185d0" stroke-linecap="square" stroke-width="2"><path d="m14 0h-14v30h11c1.6569 0 3-1.3431 3-3z" fill="#fff" transform="matrix(-1 0 0 1 20 11)"/><path d="m3.5 0h32v30c0 1.6569-1.3431 3-3 3h-32.5.5c1.65685 0 3-1.3431 3-3z" fill="#fff" transform="translate(8.5 8)"/><path d="m17 13h22v4h-22z"/><path d="m17 21h4v9h-4z" fill="#fff"/><path d="m25 21h14v4h-14z" fill="#fff"/><path d="m25 29h14"/><path d="m25 33h14"/></g></svg>