<svg width="25" height="25" viewBox="0 0 25 25" version="1.1" xmlns="http://www.w3.org/2000/svg" xmlns:xlink="http://www.w3.org/1999/xlink"><title>publications</title><desc>Created using Figma</desc><g id="Canvas" transform="matrix(0.5 0 0 0.5 -300 -25)"><clipPath id="clip-0" clip-rule="evenodd"><path d="M 0 0L 1398 0L 1398 646L 0 646L 0 0Z" fill="#FFF"/></clipPath><g id="Frame" clip-path="url(#clip-0)"><path d="M 0 0L 1398 0L 1398 646L 0 646L 0 0Z" fill="#FFF"/><g id="publications"><g id="Rectangle"><use xlink:href="#path0_fill" transform="matrix(-1 0 0 1 620 61)" fill="#FFF"/><use xlink:href="#path1_stroke" transform="matrix(-1 0 0 1 620 61)"/></g><g id="Rectangle"><use xlink:href="#path2_fill" transform="translate(608.5 58)" fill="#FFF"/><use xlink:href="#path3_stroke" transform="translate(608.5 58)"/></g><g id="Rectangle"><use xlink:href="#path4_fill" transform="translate(617 63)"/><use xlink:href="#path5_stroke" transform="translate(617 63)"/></g><g id="Rectangle"><use xlink:href="#path6_fill" transform="translate(617 71)" fill="#FFF"/><use xlink:href="#path7_stroke" transform="translate(617 71)"/></g><g id="Rectangle"><use xlink:href="#path8_fill" transform="translate(625 71)" fill="#FFF"/><use xlink:href="#path9_stroke" transform="translate(625 71)"/></g><g id="Line"><use xlink:href="#path10_stroke" transform="translate(624 80)"/></g><g id="Line"><use xlink:href="#path10_stroke" transform="translate(624 84)"/></g></g></g></g><defs><path id="path0_fill" d="M 14 0L 0 0L 0 30L 11 30C 12.6569 30 14 28.6569 14 27L 14 0Z"/><path id="path1_stroke" d="M 14 0L 15 0L 15 -1L 14 -1L 14 0ZM 0 0L 0 -1L -1 -1L -1 0L 0 0ZM 0 30L -1 30L -1 31L 0 31L 0 30ZM -1 0L -1 30L 1 30L 1 0L -1 0ZM 0 31L 11 31L 11 29L 0 29L 0 31ZM 15 27L 15 0L 13 0L 13 27L 15 27ZM 14 -1L 0 -1L 0 1L 14 1L 14 -1ZM 11 31C 13.2091 31 15 29.2091 15 27L 13 27C 13 28.1046 12.1046 29 11 29L 11 31Z"/><path id="path2_fill" d="M 3.5 0L 35.5 0L 35.5 30C 35.5 31.6569 34.1569 33 32.5 33L 0 33L 0.5 33C 2.15685 33 3.5 31.6569 3.5 30L 3.5 0Z"/><path id="path3_stroke" d="M 3.5 0L 3.5 -1L 2.5 -1L 2.5 0L 3.5 0ZM 35.5 0L 36.5 0L 36.5 -1L 35.5 -1L 35.5 0ZM 3.5 1L 35.5 1L 35.5 -1L 3.5 -1L 3.5 1ZM 34.5 0L 34.5 30L 36.5 30L 36.5 0L 34.5 0ZM 32.5 32L 0 32L 0 34L 32.5 34L 32.5 32ZM 0 34L 0.5 34L 0.5 32L 0 32L 0 34ZM 4.5 30L 4.5 0L 2.5 0L 2.5 30L 4.5 30ZM 0.5 34C 2.70914 34 4.5 32.2091 4.5 30L 2.5 30C 2.5 31.1046 1.60457 32 0.5 32L 0.5 34ZM 34.5 30C 34.5 31.1046 33.6046 32 32.5 32L 32.5 34C 34.7091 34 36.5 32.2091 36.5 30L 34.5 30Z"/><path id="path4_fill" d="M 0 0L 22 0L 22 4L 0 4L 0 0Z"/><path id="path5_stroke" d="M 0 0L 0 -1L -1 -1L -1 0L 0 0ZM 22 0L 23 0L 23 -1L 22 -1L 22 0ZM 22 4L 22 5L 23 5L 23 4L 22 4ZM 0 4L -1 4L -1 5L 0 5L 0 4ZM 0 1L 22 1L 22 -1L 0 -1L 0 1ZM 21 0L 21 4L 23 4L 23 0L 21 0ZM 22 3L 0 3L 0 5L 22 5L 22 3ZM 1 4L 1 0L -1 0L -1 4L 1 4Z"/><path id="path6_fill" d="M 0 0L 4 0L 4 9L 0 9L 0 0Z"/><path id="path7_stroke" d="M 0 0L 0 -1L -1 -1L -1 0L 0 0ZM 4 0L 5 0L 5 -1L 4 -1L 4 0ZM 4 9L 4 10L 5 10L 5 9L 4 9ZM 0 9L -1 9L -1 10L 0 10L 0 9ZM 0 1L 4 1L 4 -1L 0 -1L 0 1ZM 3 0L 3 9L 5 9L 5 0L 3 0ZM 4 8L 0 8L 0 10L 4 10L 4 8ZM 1 9L 1 0L -1 0L -1 9L 1 9Z"/><path id="path8_fill" d="M 0 0L 14 0L 14 4L 0 4L 0 0Z"/><path id="path9_stroke" d="M 0 0L 0 -1L -1 -1L -1 0L 0 0ZM 14 0L 15 0L 15 -1L 14 -1L 14 0ZM 14 4L 14 5L 15 5L 15 4L 14 4ZM 0 4L -1 4L -1 5L 0 5L 0 4ZM 0 1L 14 1L 14 -1L 0 -1L 0 1ZM 13 0L 13 4L 15 4L 15 0L 13 0ZM 14 3L 0 3L 0 5L 14 5L 14 3ZM 1 4L 1 0L -1 0L -1 4L 1 4Z"/><path id="path10_stroke" d="M 1 -2L 0 -2L 0 0L 1 0L 1 -2ZM 15 0L 16 0L 16 -2L 15 -2L 15 0ZM 1 0L 15 0L 15 -2L 1 -2L 1 0Z"/></defs></svg>