<svg fill="none" height="50" viewBox="0 0 50 50" width="50" xmlns="http://www.w3.org/2000/svg"><g fill="#fff"><path d="m7 18h36v26h-36z" stroke="#2185d0" stroke-linecap="square" stroke-width="2"/><path d="m5 16h40v10h-40z" stroke="#2185d0" stroke-linecap="square" stroke-width="2"/><path d="m17 16h16v28h-16z" stroke="#2185d0" stroke-linecap="square" stroke-width="2"/></g><path d="m24 26v4h-2l3 4 3-4h-2v-4z" fill="#2185d0"/><path d="m24 30v1h1v-1zm0-4v-1h-1v1zm2 0h1v-1h-1zm0 4h-1v1h1zm-4 0v-1h-2l1.2 1.6zm6 0 .8.6 1.2-1.6h-2zm-3 4-.8.6.8 1.0667.8-1.0667zm0-4v-4h-2v4zm-1-3h2v-2h-2zm1-1v4h2v-4zm-3 5h2v-2h-2zm4 0h2v-2h-2zm-.2 2.4-3-4-1.6 1.2 3 4zm1.4-4-3 4 1.6 1.2 3-4z" fill="#2185d0"/><path d="m15 6c4 0 9 8 10 10-5 0-14-1-14-6.00001 0-2.99999 2-3.99999 4-3.99999z" stroke="#2185d0" stroke-linecap="square" stroke-width="2"/><path d="m35 6c-4 0-9 8-10 10 5 0 14-1 14-6.00001 0-2.99999-2-3.99999-4-3.99999z" stroke="#2185d0" stroke-linecap="square" stroke-width="2"/></svg>