<svg viewBox="0 0 50 50" xmlns="http://www.w3.org/2000/svg" xmlns:xlink="http://www.w3.org/1999/xlink"><title>sources</title><desc>Created using Figma</desc><g transform="translate(-400 -50)"><clipPath id="a" clip-rule="evenodd"><path d="M0 0h1398v646H0V0z" fill="#FFF"/></clipPath><g clip-path="url(#a)"><g transform="translate(433 55)"><use xlink:href="#path0_fill" fill="#FFF"/><use xlink:href="#path1_stroke"/></g><g transform="translate(404 61)"><use xlink:href="#path2_fill" fill="#FFF"/><use xlink:href="#path3_stroke"/></g><g transform="translate(407 64)"><use xlink:href="#path4_fill" fill="#FFF"/><use xlink:href="#path5_stroke"/></g><g transform="translate(407 58)"><use xlink:href="#path6_fill" fill="#FFF"/><use xlink:href="#path7_stroke"/></g><g transform="matrix(-1 0 0 1 443 58)"><use xlink:href="#path6_fill" fill="#FFF"/><use xlink:href="#path7_stroke"/></g></g></g><defs><path id="path0_fill" d="M0 0h5v7.5H0V0z"/><path id="path1_stroke" d="M0 0v-1h-1v1h1zm5 0h1v-1H5v1zm0 7.5v1h1v-1H5zm-5 0h-1v1h1v-1zM0 1h5v-2H0v2zm4-1v7.5h2V0H4zm1 6.5H0v2h5v-2zm-4 1V0h-2v7.5h2z"/><path id="path2_fill" fill-rule="evenodd" d="M42 0H0v31h18.6667L19 32h4l.3333-1H42V0z"/><path id="path3_stroke" d="M0 0v-1h-1v1h1zm42 0h1v-1h-1v1zM0 31h-1v1h1v-1zm18.6667 0l.9486-.3162L19.3874 30h-.7207v1zM19 32l-.9487.3162.2279.6838H19v-1zm4 0v1h.7208l.2279-.6838L23 32zm.3333-1v-1h-.7207l-.2279.6838.9486.3162zM42 31v1h1v-1h-1zM0 1h42v-2H0v2zm1 30V0h-2v31h2zm17.6667-1H0v2h18.6667v-2zm1.282 1.6838l-.3334-1-1.8973.6324.3333 1 1.8974-.6324zM23 31h-4v2h4v-2zm-.6153-.3162l-.3334 1 1.8974.6324.3333-1-1.8973-.6324zM42 30H23.3333v2H42v-2zM41 0v31h2V0h-2z"/><path id="path4_fill" d="M0 0h36v25H0V0z"/><path id="path5_stroke" d="M0 0v-1h-1v1h1zm36 0h1v-1h-1v1zm0 25v1h1v-1h-1zM0 25h-1v1h1v-1zM0 1h36v-2H0v2zm35-1v25h2V0h-2zm1 24H0v2h36v-2zM1 25V0h-2v25h2z"/><path id="path6_fill" d="M0 0h13c2.7614 0 5 2.23858 5 5v25.5c0-2.4853-2.0147-4.5-4.5-4.5H0V0z"/><path id="path7_stroke" d="M0 0v-1h-1v1h1zm0 26h-1v1h1v-1zM0 1h13v-2H0v2zm17 4v25.5h2V5h-2zM1 26V0h-2v26h2zm12.5-1H0v2h13.5v-2zm5.5 5.5c0-3.0376-2.4624-5.5-5.5-5.5v2c1.933 0 3.5 1.567 3.5 3.5h2zM13 1c2.2091 0 4 1.79086 4 4h2c0-3.31371-2.6863-6-6-6v2z"/></defs></svg>