<svg width="50" height="50" viewBox="0 0 50 50" version="1.1" xmlns="http://www.w3.org/2000/svg" xmlns:xlink="http://www.w3.org/1999/xlink"><title>sources</title><desc>Created using Figma</desc><g id="Canvas" transform="matrix(0.5 0 0 0.5 -319.5 -100)"><clipPath id="clip-0" clip-rule="evenodd"><path d="M 0 0L 1398 0L 1398 646L 0 646L 0 0Z" fill="#FFF"/></clipPath><g id="Frame" clip-path="url(#clip-0)"><path d="M 0 0L 1398 0L 1398 646L 0 646L 0 0Z" fill="#FFF"/><g id="sources"><g id="Rectangle"><use xlink:href="#path0_fill" transform="translate(705 210)" fill="#FFF"/><use xlink:href="#path1_stroke" transform="translate(705 210)"/></g><g id="Union"><use xlink:href="#path2_fill" transform="translate(651 223)" fill="#FFF"/><use xlink:href="#path3_stroke" transform="translate(651 223)"/></g><g id="Rectangle"><use xlink:href="#path4_fill" transform="translate(657 229)" fill="#FFF"/><use xlink:href="#path5_stroke" transform="translate(657 229)"/></g><g id="Rectangle"><use xlink:href="#path6_fill" transform="translate(657 217)" fill="#FFF"/><use xlink:href="#path7_stroke" transform="translate(657 217)"/></g><g id="Rectangle"><use xlink:href="#path6_fill" transform="matrix(-1 0 0 1 721 217)" fill="#FFF"/><use xlink:href="#path7_stroke" transform="matrix(-1 0 0 1 721 217)"/></g></g></g></g><defs><path id="path0_fill" d="M 0 0L 10 0L 10 15L 0 15L 0 0Z"/><path id="path1_stroke" d="M 0 0L 0 -2L -2 -2L -2 0L 0 0ZM 10 0L 12 0L 12 -2L 10 -2L 10 0ZM 10 15L 10 17L 12 17L 12 15L 10 15ZM 0 15L -2 15L -2 17L 0 17L 0 15ZM 0 2L 10 2L 10 -2L 0 -2L 0 2ZM 8 0L 8 15L 12 15L 12 0L 8 0ZM 10 13L 0 13L 0 17L 10 17L 10 13ZM 2 15L 2 0L -2 0L -2 15L 2 15Z"/><path id="path2_fill" fill-rule="evenodd" d="M 76 0L 0 0L 0 62L 33.2 62L 34 64L 42 64L 42.8 62L 76 62L 76 0Z"/><path id="path3_stroke" d="M 0 0L 0 -2L -2 -2L -2 0L 0 0ZM 76 0L 78 0L 78 -2L 76 -2L 76 0ZM 0 62L -2 62L -2 64L 0 64L 0 62ZM 33.2 62L 35.057 61.2572L 34.5541 60L 33.2 60L 33.2 62ZM 34 64L 32.143 64.7428L 32.6459 66L 34 66L 34 64ZM 42 64L 42 66L 43.3541 66L 43.857 64.7428L 42 64ZM 42.8 62L 42.8 60L 41.4459 60L 40.943 61.2572L 42.8 62ZM 76 62L 76 64L 78 64L 78 62L 76 62ZM 0 2L 76 2L 76 -2L 0 -2L 0 2ZM 2 62L 2 0L -2 0L -2 62L 2 62ZM 33.2 60L 0 60L 0 64L 33.2 64L 33.2 60ZM 35.857 63.2572L 35.057 61.2572L 31.3431 62.7428L 32.143 64.7428L 35.857 63.2572ZM 42 62L 34 62L 34 66L 42 66L 42 62ZM 40.943 61.2572L 40.143 63.2572L 43.857 64.7428L 44.6569 62.7428L 40.943 61.2572ZM 76 60L 42.8 60L 42.8 64L 76 64L 76 60ZM 74 0L 74 62L 78 62L 78 0L 74 0Z"/><path id="path4_fill" d="M 0 0L 64 0L 64 50L 0 50L 0 0Z"/><path id="path5_stroke" d="M 0 0L 0 -2L -2 -2L -2 0L 0 0ZM 64 0L 66 0L 66 -2L 64 -2L 64 0ZM 64 50L 64 52L 66 52L 66 50L 64 50ZM 0 50L -2 50L -2 52L 0 52L 0 50ZM 0 2L 64 2L 64 -2L 0 -2L 0 2ZM 62 0L 62 50L 66 50L 66 0L 62 0ZM 64 48L 0 48L 0 52L 64 52L 64 48ZM 2 50L 2 0L -2 0L -2 50L 2 50Z"/><path id="path6_fill" d="M 0 0L 22 0C 27.5228 0 32 4.47715 32 10L 32 60C 32 54.4772 27.5228 50 22 50L 0 50L 0 0Z"/><path id="path7_stroke" d="M 0 0L 0 -2L -2 -2L -2 0L 0 0ZM 0 50L -2 50L -2 52L 0 52L 0 50ZM 0 2L 22 2L 22 -2L 0 -2L 0 2ZM 30 10L 30 60L 34 60L 34 10L 30 10ZM 2 50L 2 0L -2 0L -2 50L 2 50ZM 22 48L 0 48L 0 52L 22 52L 22 48ZM 34 60C 34 53.3726 28.6274 48 22 48L 22 52C 26.4183 52 30 55.5817 30 60L 34 60ZM 22 2C 26.4183 2 30 5.58172 30 10L 34 10C 34 3.37258 28.6274 -2 22 -2L 22 2Z"/></defs></svg>