<svg width="100" height="100" viewBox="0 0 100 100" version="1.1" xmlns="http://www.w3.org/2000/svg" xmlns:xlink="http://www.w3.org/1999/xlink"><title>sources</title><desc>Created using Figma</desc><g id="Canvas" transform="matrix(2 0 0 2 -800 -100)"><clipPath id="clip-0" clip-rule="evenodd"><path d="M 0 0L 1398 0L 1398 646L 0 646L 0 0Z" fill="#FFF"/></clipPath><g id="Frame" clip-path="url(#clip-0)"><path d="M 0 0L 1398 0L 1398 646L 0 646L 0 0Z" fill="#FFF"/><g id="sources"><g id="Rectangle"><use xlink:href="#path0_fill" transform="translate(433 55)" fill="#FFF"/><use xlink:href="#path1_stroke" transform="translate(433 55)"/></g><g id="Union"><use xlink:href="#path2_fill" transform="translate(404 61)" fill="#FFF"/><use xlink:href="#path3_stroke" transform="translate(404 61)"/></g><g id="Rectangle"><use xlink:href="#path4_fill" transform="translate(407 64)" fill="#FFF"/><use xlink:href="#path5_stroke" transform="translate(407 64)"/></g><g id="Rectangle"><use xlink:href="#path6_fill" transform="translate(407 58)" fill="#FFF"/><use xlink:href="#path7_stroke" transform="translate(407 58)"/></g><g id="Rectangle"><use xlink:href="#path6_fill" transform="matrix(-1 0 0 1 443 58)" fill="#FFF"/><use xlink:href="#path7_stroke" transform="matrix(-1 0 0 1 443 58)"/></g></g></g></g><defs><path id="path0_fill" d="M 0 0L 5 0L 5 7.5L 0 7.5L 0 0Z"/><path id="path1_stroke" d="M 0 0L 0 -1L -1 -1L -1 0L 0 0ZM 5 0L 6 0L 6 -1L 5 -1L 5 0ZM 5 7.5L 5 8.5L 6 8.5L 6 7.5L 5 7.5ZM 0 7.5L -1 7.5L -1 8.5L 0 8.5L 0 7.5ZM 0 1L 5 1L 5 -1L 0 -1L 0 1ZM 4 0L 4 7.5L 6 7.5L 6 0L 4 0ZM 5 6.5L 0 6.5L 0 8.5L 5 8.5L 5 6.5ZM 1 7.5L 1 0L -1 0L -1 7.5L 1 7.5Z"/><path id="path2_fill" fill-rule="evenodd" d="M 42 0L 0 0L 0 31L 18.6667 31L 19 32L 23 32L 23.3333 31L 42 31L 42 0Z"/><path id="path3_stroke" d="M 0 0L 0 -1L -1 -1L -1 0L 0 0ZM 42 0L 43 0L 43 -1L 42 -1L 42 0ZM 0 31L -1 31L -1 32L 0 32L 0 31ZM 18.6667 31L 19.6153 30.6838L 19.3874 30L 18.6667 30L 18.6667 31ZM 19 32L 18.0513 32.3162L 18.2792 33L 19 33L 19 32ZM 23 32L 23 33L 23.7208 33L 23.9487 32.3162L 23 32ZM 23.3333 31L 23.3333 30L 22.6126 30L 22.3847 30.6838L 23.3333 31ZM 42 31L 42 32L 43 32L 43 31L 42 31ZM 0 1L 42 1L 42 -1L 0 -1L 0 1ZM 1 31L 1 0L -1 0L -1 31L 1 31ZM 18.6667 30L 0 30L 0 32L 18.6667 32L 18.6667 30ZM 19.9487 31.6838L 19.6153 30.6838L 17.718 31.3162L 18.0513 32.3162L 19.9487 31.6838ZM 23 31L 19 31L 19 33L 23 33L 23 31ZM 22.3847 30.6838L 22.0513 31.6838L 23.9487 32.3162L 24.282 31.3162L 22.3847 30.6838ZM 42 30L 23.3333 30L 23.3333 32L 42 32L 42 30ZM 41 0L 41 31L 43 31L 43 0L 41 0Z"/><path id="path4_fill" d="M 0 0L 36 0L 36 25L 0 25L 0 0Z"/><path id="path5_stroke" d="M 0 0L 0 -1L -1 -1L -1 0L 0 0ZM 36 0L 37 0L 37 -1L 36 -1L 36 0ZM 36 25L 36 26L 37 26L 37 25L 36 25ZM 0 25L -1 25L -1 26L 0 26L 0 25ZM 0 1L 36 1L 36 -1L 0 -1L 0 1ZM 35 0L 35 25L 37 25L 37 0L 35 0ZM 36 24L 0 24L 0 26L 36 26L 36 24ZM 1 25L 1 0L -1 0L -1 25L 1 25Z"/><path id="path6_fill" d="M 0 0L 13 0C 15.7614 0 18 2.23858 18 5L 18 30.5C 18 28.0147 15.9853 26 13.5 26L 0 26L 0 0Z"/><path id="path7_stroke" d="M 0 0L 0 -1L -1 -1L -1 0L 0 0ZM 0 26L -1 26L -1 27L 0 27L 0 26ZM 0 1L 13 1L 13 -1L 0 -1L 0 1ZM 17 5L 17 30.5L 19 30.5L 19 5L 17 5ZM 1 26L 1 0L -1 0L -1 26L 1 26ZM 13.5 25L 0 25L 0 27L 13.5 27L 13.5 25ZM 19 30.5C 19 27.4624 16.5376 25 13.5 25L 13.5 27C 15.433 27 17 28.567 17 30.5L 19 30.5ZM 13 1C 15.2091 1 17 2.79086 17 5L 19 5C 19 1.68629 16.3137 -1 13 -1L 13 1Z"/></defs></svg>