<svg fill="none" height="50" viewBox="0 0 50 50" width="50" xmlns="http://www.w3.org/2000/svg"><g fill="#fff" stroke="#2185d0" stroke-linecap="square" stroke-width="2"><path d="m33 5h5v7.5h-5z"/><path clip-rule="evenodd" d="m42 0h-42v31h18.6667l.3333 1h4l.3333-1h18.6667z" fill-rule="evenodd" transform="translate(4 11)"/><path d="m0 0h36v25h-36z" transform="translate(7 14)"/><path d="m0 0h13c2.7614 0 5 2.23858 5 5v25.5c0-2.4853-2.0147-4.5-4.5-4.5h-13.5z" transform="translate(7 8)"/><path d="m0 0h13c2.7614 0 5 2.23858 5 5v25.5c0-2.4853-2.0147-4.5-4.5-4.5h-13.5z" transform="matrix(-1 0 0 1 43 8)"/></g></svg>