<svg fill="none" height="50" viewBox="0 0 50 50" width="50" xmlns="http://www.w3.org/2000/svg"><path d="m33 6h5v9h-5z" fill="#fff" stroke="#2185d0" stroke-linecap="square" stroke-width="2"/><path clip-rule="evenodd" d="m46 13h-42v31h18.6667l.3333 1h4l.3333-1h18.6667z" fill="#fff" fill-rule="evenodd"/><path d="m4 13v-1h-1v1zm42 0h1v-1h-1zm-42 31h-1v1h1zm18.6667 0 .9486-.3162-.2279-.6838h-.7207zm.3333 1-.9487.3162.2279.6838h.7208zm4 0v1h.7208l.2279-.6838zm.3333-1v-1h-.7207l-.2279.6838zm18.6667 0v1h1v-1zm-42-30h42v-2h-42zm1 30v-31h-2v31zm17.6667-1h-18.6667v2h18.6667zm1.282 1.6838-.3334-1-1.8973.6324.3333 1zm3.0513-.6838h-4v2h4zm-.6153-.3162-.3334 1 1.8974.6324.3333-1zm19.6153-.6838h-18.6667v2h18.6667zm-1-30v31h2v-31z" fill="#2185d0"/><g fill="#fff" stroke="#2185d0" stroke-linecap="square" stroke-width="2"><path d="m7 16h36v25h-36z"/><path d="m7 10h13c2.7614 0 5 2.2386 5 5v25.5c0-2.4853-2.0147-4.5-4.5-4.5h-13.5z"/><path d="m43 10h-13c-2.7614 0-5 2.2386-5 5v25.5c0-2.4853 2.0147-4.5 4.5-4.5h13.5z"/></g></svg>