<svg fill="none" height="50" viewBox="0 0 50 50" width="50" xmlns="http://www.w3.org/2000/svg"><path d="m19 18h26v26h-26z" fill="#fff" stroke="#2185d0" stroke-linecap="square" stroke-width="2"/><path d="m31.3341 21.5489c.2095-.6449 1.1219-.6449 1.3315 0l2.0284 6.2429h6.5641c.6781 0 .9601.8677.4115 1.2663l-5.3105 3.8583 2.0284 6.2429c.2096.6449-.5286 1.1812-1.0772.7826l-5.3105-3.8583-5.3105 3.8583c-.5486.3986-1.2867-.1377-1.0771-.7826l2.0284-6.2429-5.3105-3.8583c-.5486-.3986-.2667-1.2663.4114-1.2663h6.5642z" fill="#2185d0"/><path d="m6 6h26v26h-26z" fill="#fff" stroke="#2185d0" stroke-linecap="square" stroke-width="2"/><path d="m22.4286 16h-6l-.8572 6h6z" fill="#fff"/><path d="m13 16h13m-11 10 2-14m-5 10h13m-4 4 2-14" stroke="#2185d0" stroke-linecap="square" stroke-width="2"/></svg>